<?xml version="1.0" encoding="UTF-8"?>
<svg id="Layer_1" data-name="Layer 1" xmlns="http://www.w3.org/2000/svg" xmlns:xlink="http://www.w3.org/1999/xlink" viewBox="0 0 512 512">
  <defs>
    <style>
      .cls-1 {
        fill: url(#linear-gradient);
        fill-rule: evenodd;
      }
    </style>
    <linearGradient id="linear-gradient" x1="-282.04" y1="465.94" x2="-278.04" y2="465.94" gradientTransform="translate(28244.1 47123.42) scale(99.87 -100.59)" gradientUnits="userSpaceOnUse">
      <stop offset="0" stop-color="#3c53a4"/>
      <stop offset=".22" stop-color="#6700df" stop-opacity=".8"/>
      <stop offset="1" stop-color="#0085cc"/>
    </linearGradient>
  </defs>
  <path class="cls-1" d="M385.44,315.19v65.58c0,10.69,8.91,19.46,20.01,19.46s20.01-8.77,20.01-19.46v-65.58c0-5.2,4.47-9.32,9.88-9.32s9.88,4.12,9.88,9.32v17.52c0,2.79,2.27,5.06,5.07,5.06s5.06-2.27,5.06-5.06v-17.52c0-10.69-8.92-19.46-20.01-19.46s-20.01,8.77-20.01,19.46v65.58c0,5.2-4.48,9.33-9.88,9.33s-9.88-4.13-9.88-9.33v-65.58c0-10.69-8.92-19.46-20.01-19.46s-20.01,8.77-20.01,19.46v112.32c0,5.2-4.48,9.32-9.88,9.32s-9.88-4.13-9.88-9.32v-68.74c0-10.69-8.91-19.46-20.01-19.46s-20.01,8.77-20.01,19.46v87.78c0,5.2-4.47,9.32-9.88,9.32s-9.88-4.13-9.88-9.32v-67.54c0-10.68-8.92-19.45-20.01-19.45s-20.01,8.77-20.01,19.45v67.54c0,5.2-4.48,9.32-9.88,9.32s-9.88-4.13-9.88-9.32v-102.17c0-2.8-2.27-5.06-5.07-5.06s-5.06,2.27-5.06,5.06v102.17c0,10.68,8.91,19.45,20.01,19.45s20.01-8.77,20.01-19.45v-67.54c0-5.2,4.47-9.32,9.88-9.32s9.88,4.13,9.88,9.32v67.54c0,10.68,8.92,19.45,20.01,19.45s20.01-8.77,20.01-19.45v-87.78c0-5.2,4.48-9.33,9.88-9.33s9.88,4.13,9.88,9.33v68.74c0,10.68,8.91,19.46,20,19.46s20.01-8.78,20.01-19.46v-112.32c0-5.2,4.48-9.32,9.88-9.32s9.88,4.12,9.88,9.32ZM235.99,65.45v76.06c0,5.2-4.48,9.32-9.88,9.32s-9.88-4.12-9.88-9.32v-68.04c0-10.69-8.92-19.46-20.01-19.46s-20.01,8.77-20.01,19.46v354.03c0,5.2-4.48,9.32-9.88,9.32s-9.88-4.13-9.88-9.32V103.3c0-10.69-8.91-19.46-20.01-19.46s-20.01,8.77-20.01,19.46v277.47c0,5.2-4.47,9.33-9.88,9.33s-9.88-4.13-9.88-9.33v-198.93c0-10.69-8.92-19.46-20.01-19.46s-20.01,8.77-20.01,19.46v107.42c0,2.8,2.27,5.06,5.06,5.06s5.07-2.27,5.07-5.06v-107.42c0-5.2,4.47-9.32,9.88-9.32s9.88,4.12,9.88,9.32v198.93c0,10.69,8.92,19.46,20.01,19.46s20.01-8.77,20.01-19.46V103.3c0-5.2,4.48-9.33,9.88-9.33s9.88,4.13,9.88,9.33v324.21c0,10.68,8.91,19.46,20.01,19.46s20.01-8.78,20.01-19.46V73.48c0-5.2,4.48-9.32,9.88-9.32s9.88,4.12,9.88,9.32v68.04c0,10.69,8.91,19.46,20.01,19.46s20.01-8.77,20.01-19.46v-76.06c0-5.2,4.47-9.32,9.88-9.32s9.88,4.13,9.88,9.32v71.61c0,10.69,8.92,19.46,20.01,19.46s20.01-8.77,20.01-19.46v-63.59c0-5.2,4.48-9.32,9.88-9.32s9.88,4.12,9.88,9.32v121.66c0,10.69,8.91,19.46,20,19.46s20.01-8.77,20.01-19.46v-91.84c0-5.2,4.48-9.33,9.88-9.33s9.88,4.13,9.88,9.33v91.84c0,10.69,8.91,19.46,20.01,19.46s20.01-8.77,20.01-19.46v-13.29c0-5.2,4.47-9.32,9.88-9.32s9.88,4.12,9.88,9.32v27.68c0,2.8,2.27,5.07,5.07,5.07s5.06-2.27,5.06-5.07v-27.68c0-10.69-8.92-19.46-20.01-19.46s-20.01,8.77-20.01,19.46v13.29c0,5.2-4.48,9.32-9.88,9.32s-9.88-4.13-9.88-9.32v-91.84c0-10.69-8.92-19.46-20.01-19.46s-20.01,8.77-20.01,19.46v91.84c0,5.2-4.48,9.32-9.88,9.32s-9.88-4.13-9.88-9.32v-121.66c0-10.69-8.91-19.46-20.01-19.46s-20.01,8.77-20.01,19.46v63.59c0,5.2-4.47,9.33-9.88,9.33s-9.88-4.13-9.88-9.33v-71.61c0-10.68-8.92-19.45-20.01-19.45s-20.01,8.77-20.01,19.45Z"/>
</svg>