<?xml version="1.0" encoding="UTF-8"?>
<svg id="Layer_1" xmlns="http://www.w3.org/2000/svg" xmlns:xlink="http://www.w3.org/1999/xlink" version="1.1" viewBox="0 0 200 48">
  <!-- Generator: Adobe Illustrator 30.0.0, SVG Export Plug-In . SVG Version: 2.1.1 Build 123)  -->
  <defs>
    <style>
      .st0 {
        fill: url(#linear-gradient);
        fill-rule: evenodd;
      }
    </style>
    <linearGradient id="linear-gradient" x1="3.2" y1="24" x2="196.8" y2="24" gradientUnits="userSpaceOnUse">
      <stop offset="0" stop-color="#f6b3d0"/>
      <stop offset=".6" stop-color="#0f84c7"/>
      <stop offset="1" stop-color="#fff"/>
    </linearGradient>
  </defs>
  <path class="st0" d="M12.7,14.2s0,.9-.1,2.4c0,1-.1,2.2-.2,3.5,0,.5,0,1,0,1.6,0,.8,0,1.6,0,2.4,0,.5,0,1.1,0,1.6,0,.8,0,1.6,0,2.4,0,.8,0,1.6,0,2.4,0,2.1.2,3.5.2,3.5,0,0,0-1.4.2-3.5,0-.7,0-1.5,0-2.4,0-.8,0-1.5,0-2.4,0-.5,0-1,0-1.6,0-.8,0-1.6,0-2.4,0-.5,0-1.1,0-1.6,0-1.3-.1-2.6-.2-3.5,0-1.4-.1-2.4-.1-2.4ZM14,13.8s0,.3,0,.8c0,.3,0,.7-.1,1.1,0,.2,0,.3,0,.5,0,.2,0,.5,0,.8,0,.2,0,.3,0,.5,0,.3,0,.5,0,.8,0,.3,0,.5,0,.8,0,.7.1,1.1.1,1.1,0,0,0-.5.1-1.1,0-.2,0-.5,0-.8,0-.2,0-.5,0-.8,0-.2,0-.3,0-.5,0-.3,0-.5,0-.8,0-.2,0-.3,0-.5,0-.4,0-.8-.1-1.1,0-.5,0-.8,0-.8ZM15.3,13.5s0,.2,0,.6c0,.3,0,.6-.1,1,0,.1,0,.3,0,.4,0,.2,0,.4,0,.6,0,.1,0,.3,0,.4,0,.2,0,.4,0,.6,0,.2,0,.4,0,.6,0,.6.1,1,.1,1,0,0,0-.4.1-1,0-.2,0-.4,0-.6,0-.2,0-.4,0-.6,0-.1,0-.3,0-.4,0-.2,0-.4,0-.6,0-.1,0-.3,0-.4,0-.4,0-.7-.1-1,0-.4-.1-.6-.1-.6ZM16.6,13.5s0,.2,0,.6c0,.3,0,.6,0,.9,0,.1,0,.3,0,.4,0,.2,0,.4,0,.6,0,.1,0,.3,0,.4,0,.2,0,.4,0,.6,0,.2,0,.4,0,.6,0,.5,0,.9,0,.9,0,0,0-.4,0-.9,0-.2,0-.4,0-.6,0-.2,0-.4,0-.6,0-.1,0-.3,0-.4,0-.2,0-.4,0-.6,0-.1,0-.3,0-.4,0-.3,0-.7,0-.9,0-.4,0-.6,0-.6ZM20.6,14s0,.4,0,.9c0,.4,0,.8-.1,1.4,0,.2,0,.4,0,.6,0,.3,0,.6,0,.9,0,.2,0,.4,0,.6,0,.3,0,.6,0,.9,0,.3,0,.6,0,.9,0,.8.1,1.4.1,1.4,0,0,0-.6.1-1.4,0-.3,0-.6,0-.9,0-.3,0-.6,0-.9,0-.2,0-.4,0-.6,0-.3,0-.6,0-.9,0-.2,0-.4,0-.6,0-.5,0-1-.1-1.4,0-.6,0-.9,0-.9ZM21.9,14.4s0,.3,0,.9c0,.4,0,.8-.1,1.3,0,.2,0,.4,0,.6,0,.3,0,.6,0,.9,0,.2,0,.4,0,.6,0,.3,0,.6,0,.9,0,.3,0,.6,0,.9,0,.8.1,1.3.1,1.3,0,0,0-.5.1-1.3,0-.3,0-.5,0-.9,0-.3,0-.6,0-.9,0-.2,0-.4,0-.6,0-.3,0-.6,0-.9,0-.2,0-.4,0-.6,0-.5,0-.9-.1-1.3,0-.5,0-.9,0-.9ZM23.3,15.2s0,.3-.1.8c0,.3,0,.7-.1,1.1,0,.2,0,.3,0,.5,0,.2,0,.5,0,.8,0,.2,0,.3,0,.5,0,.3,0,.5,0,.8,0,.3,0,.5,0,.8,0,.7.1,1.1.1,1.1,0,0,0-.5.1-1.1,0-.2,0-.5,0-.8,0-.2,0-.5,0-.8,0-.2,0-.3,0-.5,0-.3,0-.5,0-.8,0-.2,0-.3,0-.5,0-.4,0-.8-.1-1.1,0-.5-.1-.8-.1-.8ZM24.6,16.5s0,.2,0,.6c0,.3,0,.6,0,.9,0,.1,0,.3,0,.4,0,.2,0,.4,0,.6,0,.1,0,.3,0,.4,0,.2,0,.4,0,.6,0,.2,0,.4,0,.6,0,.5,0,.9,0,.9,0,0,0-.4,0-.9,0-.2,0-.4,0-.6,0-.2,0-.4,0-.6,0-.1,0-.3,0-.4,0-.2,0-.4,0-.6,0-.1,0-.3,0-.4,0-.3,0-.7,0-.9,0-.4,0-.6,0-.6ZM25.9,18.8s0,.1,0,.3c0,.1,0,.3,0,.5,0,0,0,.1,0,.2,0,.1,0,.2,0,.3,0,0,0,.1,0,.2,0,.1,0,.2,0,.3,0,.1,0,.2,0,.3,0,.3,0,.5,0,.5,0,0,0-.2,0-.5,0-.1,0-.2,0-.3,0-.1,0-.2,0-.3,0,0,0-.1,0-.2,0-.1,0-.2,0-.3,0,0,0-.1,0-.2,0-.2,0-.4,0-.5,0-.2,0-.3,0-.3ZM18,13.5s0,.2,0,.6c0,.3,0,.6-.1.9,0,.1,0,.3,0,.4,0,.2,0,.4,0,.6,0,.1,0,.3,0,.4,0,.2,0,.4,0,.6,0,.2,0,.4,0,.6,0,.5.1.9.1.9,0,0,0-.4.1-.9,0-.2,0-.4,0-.6,0-.2,0-.4,0-.6,0-.1,0-.3,0-.4,0-.2,0-.4,0-.6,0-.1,0-.3,0-.4,0-.3,0-.7-.1-.9,0-.4,0-.6,0-.6ZM19.3,13.6s0,.3,0,.7c0,.3,0,.6-.1,1,0,.1,0,.3,0,.4,0,.2,0,.4,0,.7,0,.1,0,.3,0,.4,0,.2,0,.5,0,.7,0,.2,0,.5,0,.7,0,.6.1,1,.1,1,0,0,0-.4.1-1,0-.2,0-.4,0-.7,0-.2,0-.4,0-.7,0-.1,0-.3,0-.4,0-.2,0-.4,0-.7,0-.2,0-.3,0-.4,0-.4,0-.7-.1-1,0-.4,0-.7,0-.7ZM14,34.2s0-.3,0-.8c0-.3,0-.7.1-1.1,0-.2,0-.3,0-.5,0-.2,0-.5,0-.8,0-.2,0-.3,0-.5,0-.3,0-.5,0-.8,0-.3,0-.5,0-.8,0-.7-.1-1.1-.1-1.1,0,0,0,.5-.1,1.1,0,.2,0,.5,0,.8,0,.2,0,.5,0,.8,0,.2,0,.3,0,.5,0,.3,0,.5,0,.8,0,.2,0,.3,0,.5,0,.4,0,.8.1,1.1,0,.5,0,.8,0,.8ZM15.3,34.5s0-.2.1-.6c0-.3,0-.6.1-1,0-.1,0-.3,0-.4,0-.2,0-.4,0-.6,0-.1,0-.3,0-.4,0-.2,0-.4,0-.6,0-.2,0-.4,0-.6,0-.6-.1-1-.1-1,0,0,0,.4-.1,1,0,.2,0,.4,0,.6,0,.2,0,.4,0,.6,0,.1,0,.3,0,.4,0,.2,0,.4,0,.6,0,.1,0,.3,0,.4,0,.4,0,.7.1,1,0,.4,0,.6,0,.6ZM16.6,34.5s0-.2,0-.6c0-.3,0-.6,0-.9,0-.1,0-.3,0-.4,0-.2,0-.4,0-.6,0-.1,0-.3,0-.4,0-.2,0-.4,0-.6,0-.2,0-.4,0-.6,0-.5,0-.9,0-.9,0,0,0,.4,0,.9,0,.2,0,.4,0,.6,0,.2,0,.4,0,.6,0,.1,0,.3,0,.4,0,.2,0,.4,0,.6,0,.1,0,.3,0,.4,0,.3,0,.7,0,.9,0,.4,0,.6,0,.6ZM20.6,34.1s0-.4,0-.9c0-.4,0-.8.1-1.4,0-.2,0-.4,0-.6,0-.3,0-.6,0-.9,0-.2,0-.4,0-.6,0-.3,0-.6,0-.9,0-.3,0-.6,0-.9,0-.8-.1-1.4-.1-1.4,0,0,0,.6-.1,1.4,0,.3,0,.6,0,.9,0,.3,0,.6,0,.9,0,.2,0,.4,0,.6,0,.3,0,.6,0,.9,0,.2,0,.4,0,.6,0,.5,0,1,.1,1.4,0,.6,0,.9,0,.9ZM21.9,33.6s0-.3,0-.9c0-.4,0-.8.1-1.3,0-.2,0-.4,0-.6,0-.3,0-.6,0-.9,0-.2,0-.4,0-.6,0-.3,0-.6,0-.9,0-.3,0-.6,0-.9,0-.8-.1-1.3-.1-1.3,0,0,0,.5-.1,1.3,0,.3,0,.5,0,.9,0,.3,0,.6,0,.9,0,.2,0,.4,0,.6,0,.3,0,.6,0,.9,0,.2,0,.4,0,.6,0,.5,0,.9.1,1.3,0,.5,0,.9,0,.9ZM23.3,32.8s0-.3.1-.8c0-.3,0-.7.1-1.1,0-.2,0-.3,0-.5,0-.2,0-.5,0-.8,0-.2,0-.3,0-.5,0-.3,0-.5,0-.8,0-.3,0-.5,0-.8,0-.7-.1-1.1-.1-1.1,0,0,0,.5-.1,1.1,0,.2,0,.5,0,.8,0,.2,0,.5,0,.8,0,.2,0,.3,0,.5,0,.3,0,.5,0,.8,0,.2,0,.3,0,.5,0,.4,0,.8.1,1.1,0,.5.1.8.1.8ZM24.6,31.5s0-.2,0-.6c0-.3,0-.6,0-.9,0-.1,0-.3,0-.4,0-.2,0-.4,0-.6,0-.1,0-.3,0-.4,0-.2,0-.4,0-.6,0-.2,0-.4,0-.6,0-.5,0-.9,0-.9,0,0,0,.4,0,.9,0,.2,0,.4,0,.6,0,.2,0,.4,0,.6,0,.1,0,.3,0,.4,0,.2,0,.4,0,.6,0,.1,0,.3,0,.4,0,.3,0,.7,0,.9,0,.4,0,.6,0,.6ZM25.9,29.2s0-.1,0-.3c0-.1,0-.3,0-.5,0,0,0-.1,0-.2,0-.1,0-.2,0-.3,0,0,0-.1,0-.2,0-.1,0-.2,0-.3,0-.1,0-.2,0-.3,0-.3,0-.5,0-.5,0,0,0,.2,0,.5,0,.1,0,.2,0,.3,0,.1,0,.2,0,.3,0,0,0,.1,0,.2,0,.1,0,.2,0,.3,0,0,0,.1,0,.2,0,.2,0,.4,0,.5,0,.2,0,.3,0,.3ZM18,34.5s0-.2,0-.6c0-.3,0-.6.1-.9,0-.1,0-.3,0-.4,0-.2,0-.4,0-.6,0-.1,0-.3,0-.4,0-.2,0-.4,0-.6,0-.2,0-.4,0-.6,0-.5-.1-.9-.1-.9,0,0,0,.4-.1.9,0,.2,0,.4,0,.6,0,.2,0,.4,0,.6,0,.1,0,.3,0,.4,0,.2,0,.4,0,.6,0,.1,0,.3,0,.4,0,.3,0,.7.1.9,0,.4,0,.6,0,.6ZM19.3,34.4s0-.3,0-.7c0-.3,0-.6.1-1,0-.1,0-.3,0-.4,0-.2,0-.4,0-.7,0-.1,0-.3,0-.4,0-.2,0-.5,0-.7,0-.2,0-.5,0-.7,0-.6-.1-1-.1-1,0,0,0,.4-.1,1,0,.2,0,.4,0,.7,0,.2,0,.4,0,.7,0,.1,0,.3,0,.4,0,.2,0,.4,0,.7,0,.2,0,.3,0,.4,0,.4,0,.7.1,1,0,.4,0,.7,0,.7ZM8.7,17.2s0,.6,0,1.6c0,.7,0,1.5,0,2.5,0,.4,0,.7,0,1.1,0,.5,0,1.1,0,1.6,0,.4,0,.7,0,1.1,0,.6,0,1.1,0,1.6,0,.6,0,1.1,0,1.6,0,1.5.1,2.5.1,2.5,0,0,0-1,.1-2.5,0-.5,0-1.1,0-1.6,0-.5,0-1.1,0-1.6,0-.4,0-.7,0-1.1,0-.6,0-1.1,0-1.6,0-.4,0-.7,0-1.1,0-.9,0-1.8,0-2.5,0-1,0-1.6,0-1.6ZM10,15.7s0,.8-.1,2c0,.8-.1,1.8-.2,3,0,.4,0,.9,0,1.3,0,.6,0,1.3,0,2,0,.4,0,.9,0,1.3,0,.7,0,1.3,0,2,0,.7,0,1.4,0,2,0,1.8.2,3,.2,3,0,0,0-1.2.2-3,0-.6,0-1.3,0-2,0-.6,0-1.3,0-2,0-.4,0-.9,0-1.3,0-.7,0-1.3,0-2,0-.5,0-.9,0-1.3,0-1.1-.1-2.2-.2-3,0-1.2-.1-2-.1-2ZM11.3,14.8s0,.9-.1,2.2c0,.9,0,2.1-.1,3.3,0,.5,0,1,0,1.5,0,.7,0,1.5,0,2.2,0,.5,0,1,0,1.5,0,.8,0,1.5,0,2.2,0,.8,0,1.5,0,2.2,0,2,.2,3.3.2,3.3,0,0,0-1.3.2-3.3,0-.7,0-1.4,0-2.2,0-.7,0-1.5,0-2.2,0-.5,0-1,0-1.5,0-.7,0-1.5,0-2.2,0-.5,0-1,0-1.5,0-1.3,0-2.4-.1-3.3,0-1.4-.1-2.2-.1-2.2ZM27.2,20.9s0,.3,0,.7c0,.3,0,.7,0,1.1,0,.2,0,.3,0,.5,0,.2,0,.5,0,.7,0,.2,0,.3,0,.5,0,.3,0,.5,0,.7,0,.3,0,.5,0,.7,0,.7,0,1.1,0,1.1,0,0,0-.4.1-1.1,0-.2,0-.5,0-.7,0-.2,0-.5,0-.7,0-.2,0-.3,0-.5,0-.2,0-.5,0-.7,0-.2,0-.3,0-.5,0-.4,0-.8,0-1.1,0-.5,0-.7,0-.7ZM28.6,21.7s0,.2,0,.6c0,.2,0,.5,0,.8,0,.1,0,.2,0,.4,0,.2,0,.4,0,.6,0,.1,0,.3,0,.4,0,.2,0,.4,0,.6,0,.2,0,.4,0,.6,0,.5,0,.8,0,.8,0,0,0-.3.1-.8,0-.2,0-.4,0-.6,0-.2,0-.4,0-.6,0-.1,0-.3,0-.4,0-.2,0-.4,0-.6,0-.1,0-.3,0-.4,0-.3,0-.6,0-.8,0-.3,0-.6,0-.6ZM29.9,22.5s0,.1,0,.4c0,.1,0,.3,0,.5,0,0,0,.2,0,.2,0,.1,0,.2,0,.4,0,0,0,.2,0,.2,0,.1,0,.2,0,.4,0,.1,0,.2,0,.4,0,.3,0,.5,0,.5,0,0,0-.2,0-.5,0-.1,0-.2,0-.4,0-.1,0-.2,0-.4,0,0,0-.2,0-.2,0-.1,0-.2,0-.4,0,0,0-.2,0-.2,0-.2,0-.4,0-.5,0-.2,0-.4,0-.4ZM6,20.9s0,.3,0,.7c0,.3,0,.7,0,1.1,0,.2,0,.3,0,.5,0,.2,0,.5,0,.7,0,.2,0,.3,0,.5,0,.3,0,.5,0,.7,0,.3,0,.5,0,.7,0,.7.1,1.1.1,1.1,0,0,0-.4,0-1.1,0-.2,0-.5,0-.7,0-.2,0-.5,0-.7,0-.2,0-.3,0-.5,0-.2,0-.5,0-.7,0-.2,0-.3,0-.5,0-.4,0-.8,0-1.1,0-.5,0-.7,0-.7ZM4.7,21.7s0,.2,0,.6c0,.2,0,.5,0,.8,0,.1,0,.2,0,.4,0,.2,0,.4,0,.6,0,.1,0,.3,0,.4,0,.2,0,.4,0,.6,0,.2,0,.4,0,.6,0,.5.1.8.1.8,0,0,0-.3,0-.8,0-.2,0-.4,0-.6,0-.2,0-.4,0-.6,0-.1,0-.3,0-.4,0-.2,0-.4,0-.6,0-.1,0-.3,0-.4,0-.3,0-.6,0-.8,0-.3,0-.6,0-.6ZM3.4,22.5s0,.1,0,.4c0,.1,0,.3,0,.5,0,0,0,.2,0,.2,0,.1,0,.2,0,.4,0,0,0,.2,0,.2,0,.1,0,.2,0,.4,0,.1,0,.2,0,.4,0,.3,0,.5,0,.5,0,0,0-.2,0-.5,0-.1,0-.2,0-.4,0-.1,0-.2,0-.4,0,0,0-.2,0-.2,0-.1,0-.2,0-.4,0,0,0-.2,0-.2,0-.2,0-.4,0-.5,0-.2,0-.4,0-.4ZM7.4,19.7s0,.4,0,1c0,.4,0,1,0,1.6,0,.2,0,.5,0,.7,0,.3,0,.7,0,1,0,.2,0,.5,0,.7,0,.4,0,.7,0,1,0,.4,0,.7,0,1,0,.9.1,1.6.1,1.6,0,0,0-.6.1-1.6,0-.3,0-.7,0-1,0-.3,0-.7,0-1,0-.2,0-.5,0-.7,0-.4,0-.7,0-1,0-.2,0-.5,0-.7,0-.6,0-1.1,0-1.6,0-.6,0-1,0-1ZM68,14s0,.9-.1,2.4c0,1,0,2.2-.1,3.6,0,.5,0,1.1,0,1.6,0,.8,0,1.6,0,2.4,0,.5,0,1.1,0,1.6,0,.8,0,1.6,0,2.4,0,.9,0,1.7,0,2.4,0,2.1.2,3.6.2,3.6,0,0,0-1.5.2-3.6,0-.7,0-1.5,0-2.4,0-.8,0-1.6,0-2.4,0-.5,0-1.1,0-1.6,0-.8,0-1.6,0-2.4,0-.5,0-1.1,0-1.6,0-1.4,0-2.6-.1-3.6,0-1.5-.1-2.4-.1-2.4ZM69.3,16.3s0,.3-.1.8c0,.3,0,.7-.1,1.2,0,.2,0,.4,0,.5,0,.3,0,.5,0,.8,0,.2,0,.4,0,.5,0,.3,0,.5,0,.8,0,.3,0,.6,0,.8,0,.7.2,1.2.2,1.2,0,0,0-.5.2-1.2,0-.2,0-.5,0-.8,0-.3,0-.5,0-.8,0-.2,0-.4,0-.5,0-.3,0-.5,0-.8,0-.2,0-.4,0-.5,0-.5,0-.9-.1-1.2,0-.5-.1-.8-.1-.8ZM70.6,15.7s0,.6-.1,1.5c0,.6,0,1.4-.1,2.2,0,.3,0,.6,0,1,0,.5,0,1,0,1.5,0,.3,0,.7,0,1,0,.5,0,1,0,1.5,0,.5,0,1,0,1.5,0,1.3.2,2.2.2,2.2,0,0,0-.9.2-2.2,0-.4,0-.9,0-1.5,0-.5,0-1,0-1.5,0-.3,0-.6,0-1,0-.5,0-1,0-1.5,0-.3,0-.7,0-1,0-.8,0-1.6-.1-2.2,0-.9-.1-1.5-.1-1.5ZM72,21.1s0,.3-.1.7c0,.3,0,.7-.1,1.1,0,.2,0,.3,0,.5,0,.2,0,.5,0,.7,0,.2,0,.3,0,.5,0,.2,0,.5,0,.7,0,.3,0,.5,0,.7,0,.6.2,1.1.2,1.1,0,0,0-.4.2-1.1,0-.2,0-.5,0-.7,0-.2,0-.5,0-.7,0-.2,0-.3,0-.5,0-.2,0-.5,0-.7,0-.2,0-.3,0-.5,0-.4,0-.8-.1-1.1,0-.4-.1-.7-.1-.7ZM64,14s0,.9,0,2.4c0,1,0,2.2,0,3.6,0,.5,0,1.1,0,1.6,0,.8,0,1.6,0,2.4,0,.5,0,1.1,0,1.6,0,.8,0,1.6,0,2.4,0,.9,0,1.7,0,2.4,0,2.1,0,3.6,0,3.6,0,0,0-1.5.1-3.6,0-.7,0-1.5,0-2.4,0-.8,0-1.6,0-2.4,0-.5,0-1.1,0-1.6,0-.8,0-1.6,0-2.4,0-.5,0-1.1,0-1.6,0-1.4,0-2.6,0-3.6,0-1.5,0-2.4,0-2.4ZM65.3,14s0,.9-.1,2.4c0,1,0,2.2-.1,3.6,0,.5,0,1.1,0,1.6,0,.8,0,1.6,0,2.4,0,.5,0,1.1,0,1.6,0,.8,0,1.6,0,2.4,0,.9,0,1.7,0,2.4,0,2.1.2,3.6.2,3.6,0,0,0-1.5.2-3.6,0-.7,0-1.5,0-2.4,0-.8,0-1.6,0-2.4,0-.5,0-1.1,0-1.6,0-.8,0-1.6,0-2.4,0-.5,0-1.1,0-1.6,0-1.4,0-2.6-.1-3.6,0-1.5-.1-2.4-.1-2.4ZM66.6,14s0,.9-.1,2.4c0,1,0,2.2-.1,3.6,0,.5,0,1.1,0,1.6,0,.8,0,1.6,0,2.4,0,.5,0,1.1,0,1.6,0,.8,0,1.6,0,2.4,0,.9,0,1.7,0,2.4,0,2.1.2,3.6.2,3.6,0,0,0-1.5.2-3.6,0-.7,0-1.5,0-2.4,0-.8,0-1.6,0-2.4,0-.5,0-1.1,0-1.6,0-.8,0-1.6,0-2.4,0-.5,0-1.1,0-1.6,0-1.4,0-2.6-.1-3.6,0-1.5-.1-2.4-.1-2.4ZM75.9,14s0,.9-.1,2.4c0,1,0,2.2-.1,3.6,0,.5,0,1.1,0,1.6,0,.8,0,1.6,0,2.4,0,.5,0,1.1,0,1.6,0,.8,0,1.6,0,2.4,0,.9,0,1.7,0,2.4,0,2.1.2,3.6.2,3.6,0,0,0-1.5.2-3.6,0-.7,0-1.5,0-2.4,0-.8,0-1.6,0-2.4,0-.5,0-1.1,0-1.6,0-.8,0-1.6,0-2.4,0-.5,0-1.1,0-1.6,0-1.4,0-2.6-.1-3.6,0-1.5-.1-2.4-.1-2.4ZM77.3,14s0,.9-.1,2.4c0,1,0,2.2-.1,3.6,0,.5,0,1.1,0,1.6,0,.8,0,1.6,0,2.4,0,.5,0,1.1,0,1.6,0,.8,0,1.6,0,2.4,0,.9,0,1.7,0,2.4,0,2.1.2,3.6.2,3.6,0,0,0-1.5.2-3.6,0-.7,0-1.5,0-2.4,0-.8,0-1.6,0-2.4,0-.5,0-1.1,0-1.6,0-.8,0-1.6,0-2.4,0-.5,0-1.1,0-1.6,0-1.4,0-2.6-.1-3.6,0-1.5-.1-2.4-.1-2.4ZM78.6,14s0,.9-.1,2.4c0,1,0,2.2-.1,3.6,0,.5,0,1.1,0,1.6,0,.8,0,1.6,0,2.4,0,.5,0,1.1,0,1.6,0,.8,0,1.6,0,2.4,0,.9,0,1.7,0,2.4,0,2.1.2,3.6.2,3.6,0,0,0-1.5.2-3.6,0-.7,0-1.5,0-2.4,0-.8,0-1.6,0-2.4,0-.5,0-1.1,0-1.6,0-.8,0-1.6,0-2.4,0-.5,0-1.1,0-1.6,0-1.4,0-2.6-.1-3.6,0-1.5-.1-2.4-.1-2.4ZM79.9,14s0,.9,0,2.4c0,1,0,2.2,0,3.6,0,.5,0,1.1,0,1.6,0,.8,0,1.6,0,2.4,0,.5,0,1.1,0,1.6,0,.8,0,1.6,0,2.4,0,.9,0,1.7,0,2.4,0,2.1,0,3.6,0,3.6,0,0,0-1.5.1-3.6,0-.7,0-1.5,0-2.4,0-.8,0-1.6,0-2.4,0-.5,0-1.1,0-1.6,0-.8,0-1.6,0-2.4,0-.5,0-1.1,0-1.6,0-1.4,0-2.6,0-3.6,0-1.5,0-2.4,0-2.4ZM82.6,17.9s0,.6,0,1.5c0,.6,0,1.4,0,2.2,0,.3,0,.6,0,1,0,.5,0,1,0,1.5,0,.3,0,.7,0,1,0,.5,0,1,0,1.5,0,.5,0,1,0,1.5,0,1.3,0,2.2,0,2.2,0,0,0-.9.1-2.2,0-.4,0-.9,0-1.5,0-.5,0-1,0-1.5,0-.3,0-.6,0-1,0-.5,0-1,0-1.5,0-.3,0-.7,0-1,0-.8,0-1.6,0-2.2,0-.9,0-1.5,0-1.5ZM81.2,14s0,.9,0,2.4c0,1,0,2.2,0,3.6,0,.5,0,1.1,0,1.6,0,.8,0,1.6,0,2.4,0,.5,0,1.1,0,1.6,0,.8,0,1.6,0,2.4,0,.9,0,1.7,0,2.4,0,2.1,0,3.6,0,3.6,0,0,0-1.5.1-3.6,0-.7,0-1.5,0-2.4,0-.8,0-1.6,0-2.4,0-.5,0-1.1,0-1.6,0-.8,0-1.6,0-2.4,0-.5,0-1.1,0-1.6,0-1.4,0-2.6,0-3.6,0-1.5,0-2.4,0-2.4ZM83.9,19.4s0,.4,0,1.1c0,.5,0,1,0,1.7,0,.2,0,.5,0,.7,0,.4,0,.7,0,1.1,0,.2,0,.5,0,.7,0,.4,0,.8,0,1.1,0,.4,0,.8,0,1.1,0,1,0,1.7,0,1.7,0,0,0-.7.1-1.7,0-.3,0-.7,0-1.1,0-.4,0-.7,0-1.1,0-.2,0-.5,0-.7,0-.4,0-.7,0-1.1,0-.3,0-.5,0-.7,0-.6,0-1.2,0-1.7,0-.7,0-1.1,0-1.1ZM85.2,21.1s0,.3,0,.7c0,.3,0,.6,0,1,0,.2,0,.3,0,.5,0,.2,0,.5,0,.7,0,.2,0,.3,0,.5,0,.2,0,.5,0,.7,0,.2,0,.5,0,.7,0,.6,0,1,0,1,0,0,0-.4,0-1,0-.2,0-.4,0-.7,0-.2,0-.5,0-.7,0-.2,0-.3,0-.5,0-.2,0-.5,0-.7,0-.2,0-.3,0-.5,0-.4,0-.8,0-1,0-.4,0-.7,0-.7ZM61.3,17.9s0,.6,0,1.5c0,.6,0,1.4,0,2.2,0,.3,0,.6,0,1,0,.5,0,1,0,1.5,0,.3,0,.7,0,1,0,.5,0,1,0,1.5,0,.5,0,1,0,1.5,0,1.3.1,2.2.1,2.2,0,0,0-.9,0-2.2,0-.4,0-.9,0-1.5,0-.5,0-1,0-1.5,0-.3,0-.6,0-1,0-.5,0-1,0-1.5,0-.3,0-.7,0-1,0-.8,0-1.6,0-2.2,0-.9,0-1.5,0-1.5ZM62.7,14s0,.9,0,2.4c0,1,0,2.2,0,3.6,0,.5,0,1.1,0,1.6,0,.8,0,1.6,0,2.4,0,.5,0,1.1,0,1.6,0,.8,0,1.6,0,2.4,0,.9,0,1.7,0,2.4,0,2.1.1,3.6.1,3.6,0,0,0-1.5,0-3.6,0-.7,0-1.5,0-2.4,0-.8,0-1.6,0-2.4,0-.5,0-1.1,0-1.6,0-.8,0-1.6,0-2.4,0-.5,0-1.1,0-1.6,0-1.4,0-2.6,0-3.6,0-1.5,0-2.4,0-2.4ZM60,19.4s0,.4,0,1.1c0,.5,0,1,0,1.7,0,.2,0,.5,0,.7,0,.4,0,.7,0,1.1,0,.2,0,.5,0,.7,0,.4,0,.8,0,1.1,0,.4,0,.8,0,1.1,0,1,.1,1.7.1,1.7,0,0,0-.7,0-1.7,0-.3,0-.7,0-1.1,0-.4,0-.7,0-1.1,0-.2,0-.5,0-.7,0-.4,0-.7,0-1.1,0-.3,0-.5,0-.7,0-.6,0-1.2,0-1.7,0-.7,0-1.1,0-1.1ZM58.7,21.1s0,.3,0,.7c0,.3,0,.6,0,1,0,.2,0,.3,0,.5,0,.2,0,.5,0,.7,0,.2,0,.3,0,.5,0,.2,0,.5,0,.7,0,.2,0,.5,0,.7,0,.6,0,1,0,1,0,0,0-.4,0-1,0-.2,0-.4,0-.7,0-.2,0-.5,0-.7,0-.2,0-.3,0-.5,0-.2,0-.5,0-.7,0-.2,0-.3,0-.5,0-.4,0-.8,0-1,0-.4,0-.7,0-.7ZM73.3,20.1s0,.6-.1,1.5c0,.6,0,1.4-.1,2.2,0,.3,0,.6,0,1,0,.5,0,1,0,1.5,0,.3,0,.7,0,1,0,.5,0,1,0,1.5,0,.5,0,1,0,1.5,0,1.3.2,2.2.2,2.2,0,0,0-.9.2-2.2,0-.4,0-.9,0-1.5,0-.5,0-1,0-1.5,0-.3,0-.7,0-1,0-.5,0-1,0-1.5,0-.3,0-.7,0-1,0-.8,0-1.6-.1-2.2,0-.9-.1-1.5-.1-1.5ZM74.6,24s0,.4-.1,1.1c0,.4,0,1-.1,1.6,0,.2,0,.5,0,.7,0,.4,0,.7,0,1.1,0,.2,0,.5,0,.7,0,.4,0,.7,0,1.1,0,.4,0,.7,0,1.1,0,1,.2,1.6.2,1.6,0,0,0-.7.2-1.6,0-.3,0-.7,0-1.1,0-.3,0-.7,0-1.1,0-.2,0-.5,0-.7,0-.4,0-.7,0-1.1,0-.2,0-.5,0-.7,0-.6,0-1.2-.1-1.6,0-.7-.1-1.1-.1-1.1ZM40.4,14.1s0,.4-.1,1.1c0,.5,0,1-.1,1.7,0,.2,0,.5,0,.7,0,.4,0,.7,0,1.1,0,.2,0,.5,0,.7,0,.4,0,.8,0,1.1,0,.4,0,.8,0,1.1,0,1,.2,1.7.2,1.7,0,0,0-.7.2-1.7,0-.3,0-.7,0-1.1,0-.4,0-.7,0-1.1,0-.2,0-.5,0-.7,0-.4,0-.7,0-1.1,0-.3,0-.5,0-.7,0-.6-.1-1.2-.1-1.7,0-.7-.1-1.1-.1-1.1ZM40.4,24.9s0,.4-.1,1.1c0,.5,0,1-.1,1.6,0,.2,0,.5,0,.7,0,.4,0,.7,0,1.1,0,.2,0,.5,0,.7,0,.4,0,.7,0,1.1,0,.4,0,.8,0,1.1,0,1,.2,1.6.2,1.6,0,0,0-.7.2-1.6,0-.3,0-.7,0-1.1,0-.3,0-.7,0-1.1,0-.2,0-.5,0-.7,0-.4,0-.7,0-1.1,0-.2,0-.5,0-.7,0-.6-.1-1.2-.1-1.6,0-.7-.1-1.1-.1-1.1ZM41.8,13.7s0,.3-.1.7c0,.3,0,.6-.1,1,0,.1,0,.3,0,.5,0,.2,0,.5,0,.7,0,.2,0,.3,0,.5,0,.2,0,.5,0,.7,0,.2,0,.5,0,.7,0,.6.2,1,.2,1,0,0,0-.4.2-1,0-.2,0-.4,0-.7,0-.2,0-.5,0-.7,0-.2,0-.3,0-.5,0-.2,0-.5,0-.7,0-.2,0-.3,0-.5,0-.4-.1-.7-.1-1,0-.4-.1-.7-.1-.7ZM41.8,28.5s0,.3-.1.7c0,.3,0,.6-.1,1,0,.1,0,.3,0,.5,0,.2,0,.5,0,.7,0,.2,0,.3,0,.5,0,.2,0,.5,0,.7,0,.2,0,.5,0,.7,0,.6.2,1,.2,1,0,0,0-.4.2-1,0-.2,0-.4,0-.7,0-.2,0-.5,0-.7,0-.2,0-.3,0-.5,0-.2,0-.5,0-.7,0-.2,0-.3,0-.5,0-.4-.1-.7-.1-1,0-.4-.1-.7-.1-.7ZM43.1,13.5s0,.2-.1.6c0,.3,0,.6-.1.9,0,.1,0,.3,0,.4,0,.2,0,.4,0,.6,0,.1,0,.3,0,.4,0,.2,0,.4,0,.6,0,.2,0,.4,0,.6,0,.6.2.9.2.9,0,0,0-.4.2-.9,0-.2,0-.4,0-.6,0-.2,0-.4,0-.6,0-.1,0-.3,0-.4,0-.2,0-.4,0-.6,0-.1,0-.3,0-.4,0-.4-.1-.7-.1-.9,0-.4-.1-.6-.1-.6ZM43.1,29.3s0,.2-.1.6c0,.3,0,.6-.1.9,0,.1,0,.3,0,.4,0,.2,0,.4,0,.6,0,.1,0,.3,0,.4,0,.2,0,.4,0,.6,0,.2,0,.4,0,.6,0,.6.2.9.2.9,0,0,0-.4.2-.9,0-.2,0-.4,0-.6,0-.2,0-.4,0-.6,0-.1,0-.3,0-.4,0-.2,0-.4,0-.6,0-.1,0-.3,0-.4,0-.4-.1-.7-.1-.9,0-.4-.1-.6-.1-.6ZM44.4,13.5s0,.2-.1.6c0,.3,0,.6-.1.9,0,.1,0,.3,0,.4,0,.2,0,.4,0,.6,0,.1,0,.3,0,.4,0,.2,0,.4,0,.6,0,.2,0,.4,0,.6,0,.5.2.9.2.9,0,0,0-.4.2-.9,0-.2,0-.4,0-.6,0-.2,0-.4,0-.6,0-.1,0-.3,0-.4,0-.2,0-.4,0-.6,0-.1,0-.3,0-.4,0-.3-.1-.7-.1-.9,0-.4-.1-.6-.1-.6ZM44.4,29.5s0,.2-.1.6c0,.3,0,.6-.1.9,0,.1,0,.3,0,.4,0,.2,0,.4,0,.6,0,.1,0,.3,0,.4,0,.2,0,.4,0,.6,0,.2,0,.4,0,.6,0,.5.2.9.2.9,0,0,0-.4.2-.9,0-.2,0-.4,0-.6,0-.2,0-.4,0-.6,0-.1,0-.3,0-.4,0-.2,0-.4,0-.6,0-.1,0-.3,0-.4,0-.3-.1-.7-.1-.9,0-.4-.1-.6-.1-.6ZM36.4,16.7s0,.7,0,1.8c0,.7,0,1.6,0,2.6,0,.4,0,.8,0,1.2,0,.6,0,1.2,0,1.8,0,.4,0,.8,0,1.2,0,.6,0,1.2,0,1.8,0,.6,0,1.2,0,1.8,0,1.6,0,2.6,0,2.6,0,0,0-1.1.1-2.6,0-.5,0-1.1,0-1.8,0-.6,0-1.2,0-1.8,0-.4,0-.8,0-1.2,0-.6,0-1.2,0-1.8,0-.4,0-.8,0-1.2,0-1,0-1.9,0-2.6,0-1.1,0-1.8,0-1.8ZM37.8,15.4s0,.8-.1,2.1c0,.9,0,1.9-.1,3.1,0,.4,0,.9,0,1.4,0,.7,0,1.4,0,2.1,0,.5,0,.9,0,1.4,0,.7,0,1.4,0,2.1,0,.7,0,1.4,0,2.1,0,1.8.2,3.1.2,3.1,0,0,0-1.3.2-3.1,0-.6,0-1.3,0-2.1,0-.7,0-1.3,0-2.1,0-.5,0-.9,0-1.4,0-.7,0-1.4,0-2.1,0-.5,0-.9,0-1.4,0-1.2,0-2.2-.1-3.1,0-1.3-.1-2.1-.1-2.1ZM39.1,14.6s0,.9-.1,2.3c0,.9,0,2.1-.1,3.4,0,.5,0,1,0,1.5,0,.7,0,1.5,0,2.3,0,.5,0,1,0,1.5,0,.8,0,1.5,0,2.3,0,.8,0,1.6,0,2.3,0,2,.2,3.4.2,3.4,0,0,0-1.4.2-3.4,0-.7,0-1.4,0-2.3,0-.7,0-1.5,0-2.3,0-.5,0-1,0-1.5,0-.8,0-1.5,0-2.3,0-.5,0-1,0-1.5,0-1.3,0-2.4-.1-3.4,0-1.4-.1-2.3-.1-2.3ZM55,20.9s0,.3,0,.7c0,.3,0,.7,0,1.1,0,.2,0,.3,0,.5,0,.2,0,.5,0,.7,0,.2,0,.3,0,.5,0,.3,0,.5,0,.7,0,.3,0,.5,0,.7,0,.7,0,1.1,0,1.1,0,0,0-.4.1-1.1,0-.2,0-.5,0-.7,0-.2,0-.5,0-.7,0-.2,0-.3,0-.5,0-.2,0-.5,0-.7,0-.2,0-.3,0-.5,0-.4,0-.8,0-1.1,0-.5,0-.7,0-.7ZM56.3,21.7s0,.2,0,.6c0,.2,0,.5,0,.8,0,.1,0,.2,0,.4,0,.2,0,.4,0,.6,0,.1,0,.3,0,.4,0,.2,0,.4,0,.6,0,.2,0,.4,0,.6,0,.5,0,.8,0,.8,0,0,0-.3.1-.8,0-.2,0-.4,0-.6,0-.2,0-.4,0-.6,0-.1,0-.3,0-.4,0-.2,0-.4,0-.6,0-.1,0-.3,0-.4,0-.3,0-.6,0-.8,0-.3,0-.6,0-.6ZM57.7,22.5s0,.1,0,.4c0,.1,0,.3,0,.5,0,0,0,.2,0,.2,0,.1,0,.2,0,.4,0,0,0,.2,0,.2,0,.1,0,.2,0,.4,0,.1,0,.2,0,.4,0,.3,0,.5,0,.5,0,0,0-.2,0-.5,0-.1,0-.2,0-.4,0-.1,0-.2,0-.4,0,0,0-.2,0-.2,0-.1,0-.2,0-.4,0,0,0-.2,0-.2,0-.2,0-.4,0-.5,0-.2,0-.4,0-.4ZM33.8,20.9s0,.3,0,.7c0,.3,0,.7,0,1.1,0,.2,0,.3,0,.5,0,.2,0,.5,0,.7,0,.2,0,.3,0,.5,0,.3,0,.5,0,.7,0,.3,0,.5,0,.7,0,.7.1,1.1.1,1.1,0,0,0-.4,0-1.1,0-.2,0-.5,0-.7,0-.2,0-.5,0-.7,0-.2,0-.3,0-.5,0-.2,0-.5,0-.7,0-.2,0-.3,0-.5,0-.4,0-.8,0-1.1,0-.5,0-.7,0-.7ZM35.1,18.7s0,.5,0,1.3c0,.5,0,1.2,0,1.9,0,.3,0,.6,0,.9,0,.4,0,.8,0,1.3,0,.3,0,.6,0,.9,0,.4,0,.9,0,1.3,0,.5,0,.9,0,1.3,0,1.1.1,1.9.1,1.9,0,0,0-.8,0-1.9,0-.4,0-.8,0-1.3,0-.4,0-.8,0-1.3,0-.3,0-.6,0-.9,0-.4,0-.9,0-1.3,0-.3,0-.6,0-.9,0-.7,0-1.4,0-1.9,0-.8,0-1.3,0-1.3ZM48.4,14.1s0,.4-.1,1.1c0,.5,0,1-.1,1.7,0,.2,0,.5,0,.7,0,.4,0,.7,0,1.1,0,.2,0,.5,0,.7,0,.4,0,.8,0,1.1,0,.4,0,.8,0,1.1,0,1,.2,1.7.2,1.7,0,0,0-.7.2-1.7,0-.3,0-.7,0-1.1,0-.4,0-.7,0-1.1,0-.2,0-.5,0-.7,0-.4,0-.7,0-1.1,0-.3,0-.5,0-.7,0-.6-.1-1.2-.1-1.7,0-.7-.1-1.1-.1-1.1ZM48.4,24.9s0,.4-.1,1.1c0,.5,0,1-.1,1.6,0,.2,0,.5,0,.7,0,.4,0,.7,0,1.1,0,.2,0,.5,0,.7,0,.4,0,.7,0,1.1,0,.4,0,.8,0,1.1,0,1,.2,1.6.2,1.6,0,0,0-.7.2-1.6,0-.3,0-.7,0-1.1,0-.3,0-.7,0-1.1,0-.2,0-.5,0-.7,0-.4,0-.7,0-1.1,0-.2,0-.5,0-.7,0-.6-.1-1.2-.1-1.6,0-.7-.1-1.1-.1-1.1ZM47.1,13.7s0,.3-.1.7c0,.3,0,.6-.1,1,0,.1,0,.3,0,.5,0,.2,0,.5,0,.7,0,.2,0,.3,0,.5,0,.2,0,.5,0,.7,0,.2,0,.5,0,.7,0,.6.2,1,.2,1,0,0,0-.4.2-1,0-.2,0-.4,0-.7,0-.2,0-.5,0-.7,0-.2,0-.3,0-.5,0-.2,0-.5,0-.7,0-.2,0-.3,0-.5,0-.4-.1-.7-.1-1,0-.4-.1-.7-.1-.7ZM47.1,28.5s0,.3-.1.7c0,.3,0,.6-.1,1,0,.1,0,.3,0,.5,0,.2,0,.5,0,.7,0,.2,0,.3,0,.5,0,.2,0,.5,0,.7,0,.2,0,.5,0,.7,0,.6.2,1,.2,1,0,0,0-.4.2-1,0-.2,0-.4,0-.7,0-.2,0-.5,0-.7,0-.2,0-.3,0-.5,0-.2,0-.5,0-.7,0-.2,0-.3,0-.5,0-.4-.1-.7-.1-1,0-.4-.1-.7-.1-.7ZM45.7,13.5s0,.2-.1.6c0,.3,0,.6-.1.9,0,.1,0,.3,0,.4,0,.2,0,.4,0,.6,0,.1,0,.3,0,.4,0,.2,0,.4,0,.6,0,.2,0,.4,0,.6,0,.6.2.9.2.9,0,0,0-.4.2-.9,0-.2,0-.4,0-.6,0-.2,0-.4,0-.6,0-.1,0-.3,0-.4,0-.2,0-.4,0-.6,0-.1,0-.3,0-.4,0-.4-.1-.7-.1-.9,0-.4-.1-.6-.1-.6ZM45.7,29.3s0,.2-.1.6c0,.3,0,.6-.1.9,0,.1,0,.3,0,.4,0,.2,0,.4,0,.6,0,.1,0,.3,0,.4,0,.2,0,.4,0,.6,0,.2,0,.4,0,.6,0,.6.2.9.2.9,0,0,0-.4.2-.9,0-.2,0-.4,0-.6,0-.2,0-.4,0-.6,0-.1,0-.3,0-.4,0-.2,0-.4,0-.6,0-.1,0-.3,0-.4,0-.4-.1-.7-.1-.9,0-.4-.1-.6-.1-.6ZM52.4,16.7s0,.7,0,1.8c0,.7,0,1.6,0,2.6,0,.4,0,.8,0,1.2,0,.6,0,1.2,0,1.8,0,.4,0,.8,0,1.2,0,.6,0,1.2,0,1.8,0,.6,0,1.2,0,1.8,0,1.6.1,2.6.1,2.6,0,0,0-1.1,0-2.6,0-.5,0-1.1,0-1.8,0-.6,0-1.2,0-1.8,0-.4,0-.8,0-1.2,0-.6,0-1.2,0-1.8,0-.4,0-.8,0-1.2,0-1,0-1.9,0-2.6,0-1.1,0-1.8,0-1.8ZM51,15.4s0,.8-.1,2.1c0,.9,0,1.9-.1,3.1,0,.4,0,.9,0,1.4,0,.7,0,1.4,0,2.1,0,.5,0,.9,0,1.4,0,.7,0,1.4,0,2.1,0,.7,0,1.4,0,2.1,0,1.8.2,3.1.2,3.1,0,0,0-1.3.2-3.1,0-.6,0-1.3,0-2.1,0-.7,0-1.3,0-2.1,0-.5,0-.9,0-1.4,0-.7,0-1.4,0-2.1,0-.5,0-.9,0-1.4,0-1.2,0-2.2-.1-3.1,0-1.3-.1-2.1-.1-2.1ZM49.7,14.6s0,.9-.1,2.3c0,.9,0,2.1-.1,3.4,0,.5,0,1,0,1.5,0,.7,0,1.5,0,2.3,0,.5,0,1,0,1.5,0,.8,0,1.5,0,2.3,0,.8,0,1.6,0,2.3,0,2,.2,3.4.2,3.4,0,0,0-1.4.2-3.4,0-.7,0-1.4,0-2.3,0-.7,0-1.5,0-2.3,0-.5,0-1,0-1.5,0-.8,0-1.5,0-2.3,0-.5,0-1,0-1.5,0-1.3,0-2.4-.1-3.4,0-1.4-.1-2.3-.1-2.3ZM53.7,18.7s0,.5,0,1.3c0,.5,0,1.2,0,1.9,0,.3,0,.6,0,.9,0,.4,0,.8,0,1.3,0,.3,0,.6,0,.9,0,.4,0,.9,0,1.3,0,.5,0,.9,0,1.3,0,1.1,0,1.9,0,1.9,0,0,0-.8.1-1.9,0-.4,0-.8,0-1.3,0-.4,0-.8,0-1.3,0-.3,0-.6,0-.9,0-.4,0-.9,0-1.3,0-.3,0-.6,0-.9,0-.7,0-1.4,0-1.9,0-.8,0-1.3,0-1.3ZM32.5,21.7s0,.2,0,.6c0,.2,0,.5,0,.8,0,.1,0,.2,0,.4,0,.2,0,.4,0,.6,0,.1,0,.3,0,.4,0,.2,0,.4,0,.6,0,.2,0,.4,0,.6,0,.5.1.8.1.8,0,0,0-.3,0-.8,0-.2,0-.4,0-.6,0-.2,0-.4,0-.6,0-.1,0-.3,0-.4,0-.2,0-.4,0-.6,0-.1,0-.3,0-.4,0-.3,0-.6,0-.8,0-.3,0-.6,0-.6ZM31.1,22.5s0,.1,0,.4c0,.1,0,.3,0,.5,0,0,0,.2,0,.2,0,.1,0,.2,0,.4,0,0,0,.2,0,.2,0,.1,0,.2,0,.4,0,.1,0,.2,0,.4,0,.3,0,.5,0,.5,0,0,0-.2,0-.5,0-.1,0-.2,0-.4,0-.1,0-.2,0-.4,0,0,0-.2,0-.2,0-.1,0-.2,0-.4,0,0,0-.2,0-.2,0-.2,0-.4,0-.5,0-.2,0-.4,0-.4ZM152.3,13.7s0,.9-.1,2.4c0,1-.1,2.2-.2,3.6,0,.5,0,1.1,0,1.6,0,.8,0,1.6,0,2.4,0,.5,0,1.1,0,1.6,0,.8,0,1.6,0,2.4,0,.9,0,1.7.1,2.4.1,2.1.2,3.6.2,3.6,0,0,0-1.5.2-3.6,0-.7,0-1.5.1-2.4,0-.8,0-1.6,0-2.4,0-.5,0-1.1,0-1.6,0-.8,0-1.6,0-2.4,0-.5,0-1.1,0-1.6,0-1.4-.1-2.6-.2-3.6,0-1.5-.1-2.4-.1-2.4ZM153.6,28.1s0,.3-.1.7c0,.3,0,.7-.1,1.1,0,.2,0,.3,0,.5,0,.2,0,.5,0,.7,0,.2,0,.3,0,.5,0,.2,0,.5,0,.7,0,.3,0,.5,0,.7,0,.6.2,1.1.2,1.1,0,0,0-.4.2-1.1,0-.2,0-.5,0-.7,0-.2,0-.5,0-.7,0-.2,0-.3,0-.5,0-.2,0-.5,0-.7,0-.2,0-.3,0-.5,0-.4,0-.8-.1-1.1,0-.4-.1-.7-.1-.7ZM154.9,29.1s0,.2-.1.6c0,.3,0,.6-.1.9,0,.1,0,.3,0,.4,0,.2,0,.4,0,.6,0,.1,0,.3,0,.4,0,.2,0,.4,0,.6,0,.2,0,.4,0,.6,0,.6.2.9.2.9,0,0,0-.4.2-.9,0-.2,0-.4,0-.6,0-.2,0-.4,0-.6,0-.1,0-.3,0-.4,0-.2,0-.4,0-.6,0-.1,0-.3,0-.4,0-.4,0-.7-.1-.9,0-.4-.1-.6-.1-.6ZM156.3,29.1s0,.2,0,.6c0,.3,0,.6,0,.9,0,.1,0,.3,0,.4,0,.2,0,.4,0,.6,0,.1,0,.3,0,.4,0,.2,0,.4,0,.6,0,.2,0,.4,0,.6,0,.6,0,.9,0,.9,0,0,0-.4.1-.9,0-.2,0-.4,0-.6,0-.2,0-.4,0-.6,0-.1,0-.3,0-.4,0-.2,0-.4,0-.6,0-.1,0-.3,0-.4,0-.4,0-.7,0-.9,0-.4,0-.6,0-.6ZM148.3,13.7s0,.8,0,2.1c0,.9,0,2,0,3.2,0,.5,0,.9,0,1.4,0,.7,0,1.4,0,2.1,0,.5,0,.9,0,1.4,0,.7,0,1.4,0,2.1,0,.8,0,1.5,0,2.1,0,1.9,0,3.2,0,3.2,0,0,0-1.3.1-3.2,0-.6,0-1.4,0-2.1,0-.7,0-1.4,0-2.1,0-.5,0-.9,0-1.4,0-.7,0-1.4,0-2.1,0-.5,0-1,0-1.4,0-1.2,0-2.3,0-3.2,0-1.3,0-2.1,0-2.1ZM149.6,13.7s0,.9-.1,2.3c0,.9,0,2.1-.1,3.4,0,.5,0,1,0,1.5,0,.7,0,1.5,0,2.3,0,.5,0,1,0,1.5,0,.8,0,1.5,0,2.3,0,.8,0,1.6,0,2.3,0,2,.2,3.4.2,3.4,0,0,0-1.4.2-3.4,0-.7,0-1.5,0-2.3,0-.7,0-1.5,0-2.3,0-.5,0-1,0-1.5,0-.8,0-1.5,0-2.3,0-.5,0-1,0-1.5,0-1.3,0-2.5-.1-3.4,0-1.4-.1-2.3-.1-2.3ZM151,13.7s0,.9-.1,2.4c0,1,0,2.2-.1,3.5,0,.5,0,1,0,1.6,0,.8,0,1.6,0,2.4,0,.5,0,1.1,0,1.6,0,.8,0,1.6,0,2.4,0,.8,0,1.6,0,2.4,0,2.1.2,3.5.2,3.5,0,0,0-1.4.2-3.5,0-.7,0-1.5,0-2.4,0-.8,0-1.5,0-2.4,0-.5,0-1,0-1.6,0-.8,0-1.6,0-2.4,0-.5,0-1.1,0-1.6,0-1.3,0-2.6-.1-3.5,0-1.4-.1-2.4-.1-2.4ZM166.9,18s0,.6,0,1.4c0,.6,0,1.3,0,2.2,0,.3,0,.6,0,1,0,.5,0,1,0,1.4,0,.3,0,.6,0,1,0,.5,0,1,0,1.4,0,.5,0,1,0,1.4,0,1.3,0,2.2,0,2.2,0,0,0-.9.1-2.2,0-.4,0-.9,0-1.4,0-.5,0-.9,0-1.4,0-.3,0-.6,0-1,0-.5,0-1,0-1.4,0-.3,0-.7,0-1,0-.8,0-1.6,0-2.2,0-.9,0-1.4,0-1.4ZM168.2,19.4s0,.4,0,1.1c0,.5,0,1,0,1.6,0,.2,0,.5,0,.7,0,.4,0,.7,0,1.1,0,.2,0,.5,0,.7,0,.4,0,.7,0,1.1,0,.4,0,.8,0,1.1,0,1,0,1.6,0,1.6,0,0,0-.7.1-1.6,0-.3,0-.7,0-1.1,0-.4,0-.7,0-1.1,0-.2,0-.5,0-.7,0-.4,0-.7,0-1.1,0-.3,0-.5,0-.7,0-.6,0-1.2,0-1.6,0-.7,0-1.1,0-1.1ZM169.5,21.1s0,.3,0,.7c0,.3,0,.6,0,1,0,.1,0,.3,0,.5,0,.2,0,.5,0,.7,0,.2,0,.3,0,.5,0,.2,0,.5,0,.7,0,.2,0,.5,0,.7,0,.6,0,1,0,1,0,0,0-.4,0-1,0-.2,0-.4,0-.7,0-.2,0-.5,0-.7,0-.2,0-.3,0-.5,0-.2,0-.5,0-.7,0-.2,0-.3,0-.5,0-.4,0-.7,0-1,0-.4,0-.7,0-.7ZM145.7,18s0,.6,0,1.4c0,.6,0,1.3,0,2.2,0,.3,0,.6,0,1,0,.5,0,1,0,1.4,0,.3,0,.6,0,1,0,.5,0,1,0,1.4,0,.5,0,1,0,1.4,0,1.3.1,2.2.1,2.2,0,0,0-.9,0-2.2,0-.4,0-.9,0-1.4,0-.5,0-.9,0-1.4,0-.3,0-.6,0-1,0-.5,0-1,0-1.4,0-.3,0-.7,0-1,0-.8,0-1.6,0-2.2,0-.9,0-1.4,0-1.4ZM144.3,19.4s0,.4,0,1.1c0,.5,0,1,0,1.6,0,.2,0,.5,0,.7,0,.4,0,.7,0,1.1,0,.2,0,.5,0,.7,0,.4,0,.7,0,1.1,0,.4,0,.8,0,1.1,0,1,.1,1.6.1,1.6,0,0,0-.7,0-1.6,0-.3,0-.7,0-1.1,0-.4,0-.7,0-1.1,0-.2,0-.5,0-.7,0-.4,0-.7,0-1.1,0-.3,0-.5,0-.7,0-.6,0-1.2,0-1.6,0-.7,0-1.1,0-1.1ZM143,21.1s0,.3,0,.7c0,.3,0,.6,0,1,0,.1,0,.3,0,.5,0,.2,0,.5,0,.7,0,.2,0,.3,0,.5,0,.2,0,.5,0,.7,0,.2,0,.5,0,.7,0,.6,0,1,0,1,0,0,0-.4,0-1,0-.2,0-.4,0-.7,0-.2,0-.5,0-.7,0-.2,0-.3,0-.5,0-.2,0-.5,0-.7,0-.2,0-.3,0-.5,0-.4,0-.7,0-1,0-.4,0-.7,0-.7ZM147,13.7s0,.7,0,1.8c0,.7,0,1.7,0,2.7,0,.4,0,.8,0,1.2,0,.6,0,1.2,0,1.8,0,.4,0,.8,0,1.2,0,.6,0,1.2,0,1.8,0,.6,0,1.2,0,1.8,0,1.6.1,2.7.1,2.7,0,0,0-1.1,0-2.7,0-.5,0-1.1,0-1.8,0-.6,0-1.2,0-1.8,0-.4,0-.8,0-1.2,0-.6,0-1.2,0-1.8,0-.4,0-.8,0-1.2,0-1,0-1.9,0-2.7,0-1.1,0-1.8,0-1.8ZM160.2,13.7s0,.9-.1,2.4c0,1-.1,2.2-.2,3.6,0,.5,0,1.1,0,1.6,0,.8,0,1.6,0,2.4,0,.5,0,1.1,0,1.6,0,.8,0,1.6,0,2.4,0,.9,0,1.7.1,2.4.1,2.1.2,3.6.2,3.6,0,0,0-1.5.2-3.6,0-.7,0-1.5.1-2.4,0-.8,0-1.6,0-2.4,0-.5,0-1.1,0-1.6,0-.8,0-1.6,0-2.4,0-.5,0-1.1,0-1.6,0-1.4-.1-2.6-.2-3.6,0-1.5-.1-2.4-.1-2.4ZM158.9,28.1s0,.3-.1.7c0,.3,0,.7-.1,1.1,0,.2,0,.3,0,.5,0,.2,0,.5,0,.7,0,.2,0,.3,0,.5,0,.2,0,.5,0,.7,0,.3,0,.5,0,.7,0,.6.2,1.1.2,1.1,0,0,0-.4.2-1.1,0-.2,0-.5,0-.7,0-.2,0-.5,0-.7,0-.2,0-.3,0-.5,0-.2,0-.5,0-.7,0-.2,0-.3,0-.5,0-.4,0-.8-.1-1.1,0-.4-.1-.7-.1-.7ZM157.6,29.1s0,.2-.1.6c0,.3,0,.6-.1.9,0,.1,0,.3,0,.4,0,.2,0,.4,0,.6,0,.1,0,.3,0,.4,0,.2,0,.4,0,.6,0,.2,0,.4,0,.6,0,.6.2.9.2.9,0,0,0-.4.2-.9,0-.2,0-.4,0-.6,0-.2,0-.4,0-.6,0-.1,0-.3,0-.4,0-.2,0-.4,0-.6,0-.1,0-.3,0-.4,0-.4,0-.7-.1-.9,0-.4-.1-.6-.1-.6ZM164.2,13.7s0,.8,0,2.1c0,.9,0,2,0,3.2,0,.5,0,.9,0,1.4,0,.7,0,1.4,0,2.1,0,.5,0,.9,0,1.4,0,.7,0,1.4,0,2.1,0,.8,0,1.5,0,2.1,0,1.9.1,3.2.1,3.2,0,0,0-1.3,0-3.2,0-.6,0-1.4,0-2.1,0-.7,0-1.4,0-2.1,0-.5,0-.9,0-1.4,0-.7,0-1.4,0-2.1,0-.5,0-1,0-1.4,0-1.2,0-2.3,0-3.2,0-1.3,0-2.1,0-2.1ZM162.9,13.7s0,.9-.1,2.3c0,.9,0,2.1-.1,3.4,0,.5,0,1,0,1.5,0,.7,0,1.5,0,2.3,0,.5,0,1,0,1.5,0,.8,0,1.5,0,2.3,0,.8,0,1.6,0,2.3,0,2,.2,3.4.2,3.4,0,0,0-1.4.2-3.4,0-.7,0-1.5,0-2.3,0-.7,0-1.5,0-2.3,0-.5,0-1,0-1.5,0-.8,0-1.5,0-2.3,0-.5,0-1,0-1.5,0-1.3,0-2.5-.1-3.4,0-1.4-.1-2.3-.1-2.3ZM161.6,13.7s0,.9-.1,2.4c0,1,0,2.2-.1,3.5,0,.5,0,1,0,1.6,0,.8,0,1.6,0,2.4,0,.5,0,1.1,0,1.6,0,.8,0,1.6,0,2.4,0,.8,0,1.6,0,2.4,0,2.1.2,3.5.2,3.5,0,0,0-1.4.2-3.5,0-.7,0-1.5,0-2.4,0-.8,0-1.5,0-2.4,0-.5,0-1,0-1.6,0-.8,0-1.6,0-2.4,0-.5,0-1.1,0-1.6,0-1.3,0-2.6-.1-3.5,0-1.4-.1-2.4-.1-2.4ZM165.5,13.7s0,.7,0,1.8c0,.7,0,1.7,0,2.7,0,.4,0,.8,0,1.2,0,.6,0,1.2,0,1.8,0,.4,0,.8,0,1.2,0,.6,0,1.2,0,1.8,0,.6,0,1.2,0,1.8,0,1.6,0,2.7,0,2.7,0,0,0-1.1.1-2.7,0-.5,0-1.1,0-1.8,0-.6,0-1.2,0-1.8,0-.4,0-.8,0-1.2,0-.6,0-1.2,0-1.8,0-.4,0-.8,0-1.2,0-1,0-1.9,0-2.7,0-1.1,0-1.8,0-1.8ZM179.4,13.5s0,.9-.1,2.3c0,1-.1,2.1-.2,3.4,0,.5,0,1,0,1.5,0,.7,0,1.5,0,2.3,0,.5,0,1,0,1.5,0,.8,0,1.6,0,2.3,0,.8,0,1.6.1,2.3.1,2,.2,3.4.2,3.4,0,0,0-1.4.2-3.4,0-.7,0-1.5.1-2.3,0-.7,0-1.5,0-2.3,0-.5,0-1,0-1.5,0-.8,0-1.5,0-2.3,0-.5,0-1,0-1.5,0-1.3-.1-2.5-.2-3.4,0-1.4-.1-2.3-.1-2.3ZM180.7,13.5s0,.9-.1,2.3c0,1,0,2.1-.1,3.4,0,.5,0,1,0,1.5,0,.7,0,1.5,0,2.3,0,.5,0,1,0,1.5,0,.8,0,1.6,0,2.3,0,.8,0,1.6,0,2.3,0,2,.2,3.4.2,3.4,0,0,0-1.4.2-3.4,0-.7,0-1.5,0-2.3,0-.7,0-1.5,0-2.3,0-.5,0-1,0-1.5,0-.8,0-1.5,0-2.3,0-.5,0-1,0-1.5,0-1.3,0-2.5-.1-3.4,0-1.4-.1-2.3-.1-2.3ZM182,13.5s0,.9-.1,2.3c0,1,0,2.1-.1,3.4,0,.5,0,1,0,1.5,0,.7,0,1.5,0,2.3,0,.5,0,1,0,1.5,0,.8,0,1.6,0,2.3,0,.8,0,1.6,0,2.3,0,2,.2,3.4.2,3.4,0,0,0-1.4.2-3.4,0-.7,0-1.5,0-2.3,0-.7,0-1.5,0-2.3,0-.5,0-1,0-1.5,0-.8,0-1.5,0-2.3,0-.5,0-1,0-1.5,0-1.3,0-2.5-.1-3.4,0-1.4-.1-2.3-.1-2.3ZM183.4,27.3s0,.2,0,.6c0,.3,0,.6,0,1,0,.1,0,.3,0,.4,0,.2,0,.4,0,.6,0,.1,0,.3,0,.4,0,.2,0,.4,0,.6,0,.2,0,.4,0,.6,0,.6,0,1,0,1,0,0,0-.4.1-1,0-.2,0-.4,0-.6,0-.2,0-.4,0-.6,0-.1,0-.3,0-.4,0-.2,0-.4,0-.6,0-.1,0-.3,0-.4,0-.4,0-.7,0-1,0-.4,0-.6,0-.6ZM175.4,25.3s0,.4,0,1.1c0,.5,0,1,0,1.7,0,.2,0,.5,0,.7,0,.4,0,.7,0,1.1,0,.2,0,.5,0,.7,0,.4,0,.7,0,1.1,0,.4,0,.8,0,1.1,0,1,0,1.7,0,1.7,0,0,0-.7.1-1.7,0-.3,0-.7,0-1.1,0-.4,0-.7,0-1.1,0-.2,0-.5,0-.7,0-.4,0-.7,0-1.1,0-.3,0-.5,0-.7,0-.6,0-1.2,0-1.7,0-.7,0-1.1,0-1.1ZM191.3,25.3s0,.4,0,1.1c0,.5,0,1,0,1.7,0,.2,0,.5,0,.7,0,.4,0,.7,0,1.1,0,.2,0,.5,0,.7,0,.4,0,.7,0,1.1,0,.4,0,.8,0,1.1,0,1,0,1.7,0,1.7,0,0,0-.7.1-1.7,0-.3,0-.7,0-1.1,0-.4,0-.7,0-1.1,0-.2,0-.5,0-.7,0-.4,0-.7,0-1.1,0-.3,0-.5,0-.7,0-.6,0-1.2,0-1.7,0-.7,0-1.1,0-1.1ZM194,25.3s0,.4,0,1.1c0,.5,0,1,0,1.7,0,.2,0,.5,0,.7,0,.4,0,.7,0,1.1,0,.2,0,.5,0,.7,0,.4,0,.7,0,1.1,0,.4,0,.8,0,1.1,0,1,0,1.7,0,1.7,0,0,0-.7.1-1.7,0-.3,0-.7,0-1.1,0-.4,0-.7,0-1.1,0-.2,0-.5,0-.7,0-.4,0-.7,0-1.1,0-.3,0-.5,0-.7,0-.6,0-1.2,0-1.7,0-.7,0-1.1,0-1.1ZM192.6,26.4s0,.3,0,.8c0,.3,0,.8,0,1.3,0,.2,0,.4,0,.6,0,.3,0,.6,0,.8,0,.2,0,.4,0,.6,0,.3,0,.6,0,.8,0,.3,0,.6,0,.8,0,.7,0,1.3,0,1.3,0,0,0-.5.1-1.3,0-.3,0-.5,0-.8,0-.3,0-.6,0-.8,0-.2,0-.4,0-.6,0-.3,0-.6,0-.8,0-.2,0-.4,0-.6,0-.5,0-.9,0-1.3,0-.5,0-.8,0-.8ZM195.3,26.4s0,.3,0,.8c0,.3,0,.8,0,1.3,0,.2,0,.4,0,.6,0,.3,0,.6,0,.8,0,.2,0,.4,0,.6,0,.3,0,.6,0,.8,0,.3,0,.6,0,.8,0,.7,0,1.3,0,1.3,0,0,0-.5.1-1.3,0-.3,0-.5,0-.8,0-.3,0-.6,0-.8,0-.2,0-.4,0-.6,0-.3,0-.6,0-.8,0-.2,0-.4,0-.6,0-.5,0-.9,0-1.3,0-.5,0-.8,0-.8ZM196.6,27.7s0,.2,0,.5c0,.2,0,.5,0,.8,0,.1,0,.2,0,.4,0,.2,0,.3,0,.5,0,.1,0,.2,0,.4,0,.2,0,.4,0,.5,0,.2,0,.4,0,.5,0,.5,0,.8,0,.8,0,0,0-.3,0-.8,0-.2,0-.3,0-.5,0-.2,0-.3,0-.5,0-.1,0-.2,0-.4,0-.2,0-.4,0-.5,0-.1,0-.2,0-.4,0-.3,0-.6,0-.8,0-.3,0-.5,0-.5ZM172.8,25.3s0,.4,0,1.1c0,.5,0,1,0,1.7,0,.2,0,.5,0,.7,0,.4,0,.7,0,1.1,0,.2,0,.5,0,.7,0,.4,0,.7,0,1.1,0,.4,0,.8,0,1.1,0,1,.1,1.7.1,1.7,0,0,0-.7,0-1.7,0-.3,0-.7,0-1.1,0-.4,0-.7,0-1.1,0-.2,0-.5,0-.7,0-.4,0-.7,0-1.1,0-.3,0-.5,0-.7,0-.6,0-1.2,0-1.7,0-.7,0-1.1,0-1.1ZM174.1,26.4s0,.3,0,.8c0,.3,0,.8,0,1.3,0,.2,0,.4,0,.6,0,.3,0,.6,0,.8,0,.2,0,.4,0,.6,0,.3,0,.6,0,.8,0,.3,0,.6,0,.8,0,.7.1,1.3.1,1.3,0,0,0-.5,0-1.3,0-.3,0-.5,0-.8,0-.3,0-.6,0-.8,0-.2,0-.4,0-.6,0-.3,0-.6,0-.8,0-.2,0-.4,0-.6,0-.5,0-.9,0-1.3,0-.5,0-.8,0-.8ZM171.4,26.4s0,.3,0,.8c0,.3,0,.8,0,1.3,0,.2,0,.4,0,.6,0,.3,0,.6,0,.8,0,.2,0,.4,0,.6,0,.3,0,.6,0,.8,0,.3,0,.6,0,.8,0,.7.1,1.3.1,1.3,0,0,0-.5,0-1.3,0-.3,0-.5,0-.8,0-.3,0-.6,0-.8,0-.2,0-.4,0-.6,0-.3,0-.6,0-.8,0-.2,0-.4,0-.6,0-.5,0-.9,0-1.3,0-.5,0-.8,0-.8ZM170.1,27.7s0,.2,0,.5c0,.2,0,.5,0,.8,0,.1,0,.2,0,.4,0,.2,0,.3,0,.5,0,.1,0,.2,0,.4,0,.2,0,.4,0,.5,0,.2,0,.4,0,.5,0,.5,0,.8,0,.8,0,0,0-.3,0-.8,0-.2,0-.3,0-.5,0-.2,0-.3,0-.5,0-.1,0-.2,0-.4,0-.2,0-.4,0-.5,0-.1,0-.2,0-.4,0-.3,0-.6,0-.8,0-.3,0-.5,0-.5ZM176.7,13.5s0,.9-.1,2.3c0,1,0,2.1-.1,3.4,0,.5,0,1,0,1.5,0,.7,0,1.5,0,2.3,0,.5,0,1,0,1.5,0,.8,0,1.6,0,2.3,0,.8,0,1.6,0,2.3,0,2,.2,3.4.2,3.4,0,0,0-1.4.2-3.4,0-.7,0-1.5,0-2.3,0-.7,0-1.5,0-2.3,0-.5,0-1,0-1.5,0-.8,0-1.5,0-2.3,0-.5,0-1,0-1.5,0-1.3,0-2.5-.1-3.4,0-1.4-.1-2.3-.1-2.3ZM178.1,13.5s0,.9-.1,2.3c0,1,0,2.1-.1,3.4,0,.5,0,1,0,1.5,0,.7,0,1.5,0,2.3,0,.5,0,1,0,1.5,0,.8,0,1.6,0,2.3,0,.8,0,1.6,0,2.3,0,2,.2,3.4.2,3.4,0,0,0-1.4.2-3.4,0-.7,0-1.5,0-2.3,0-.7,0-1.5,0-2.3,0-.5,0-1,0-1.5,0-.8,0-1.5,0-2.3,0-.5,0-1,0-1.5,0-1.3,0-2.5-.1-3.4,0-1.4-.1-2.3-.1-2.3ZM187.3,26.2s0,.3-.1.9c0,.4,0,.8-.1,1.3,0,.2,0,.4,0,.6,0,.3,0,.6,0,.9,0,.2,0,.4,0,.6,0,.3,0,.6,0,.9,0,.3,0,.6,0,.9,0,.8.2,1.3.2,1.3,0,0,0-.5.2-1.3,0-.3,0-.6,0-.9,0-.3,0-.6,0-.9,0-.2,0-.4,0-.6,0-.3,0-.6,0-.9,0-.2,0-.4,0-.6,0-.5,0-1-.1-1.3,0-.6-.1-.9-.1-.9ZM188.7,27.3s0,.2-.1.6c0,.3,0,.6-.1,1,0,.1,0,.3,0,.4,0,.2,0,.4,0,.6,0,.1,0,.3,0,.4,0,.2,0,.4,0,.6,0,.2,0,.4,0,.6,0,.6.2,1,.2,1,0,0,0-.4.2-1,0-.2,0-.4,0-.6,0-.2,0-.4,0-.6,0-.1,0-.3,0-.4,0-.2,0-.4,0-.6,0-.1,0-.3,0-.4,0-.4,0-.7-.1-1,0-.4-.1-.6-.1-.6ZM190,28s0,.2-.1.5c0,.2,0,.4-.1.7,0,0,0,.2,0,.3,0,.1,0,.3,0,.5,0,.1,0,.2,0,.3,0,.2,0,.3,0,.5,0,.2,0,.3,0,.5,0,.4.2.7.2.7,0,0,0-.3.2-.7,0-.1,0-.3,0-.5,0-.1,0-.3,0-.5,0,0,0-.2,0-.3,0-.2,0-.3,0-.5,0-.1,0-.2,0-.3,0-.3,0-.5-.1-.7,0-.3-.1-.5-.1-.5ZM184.7,27.3s0,.2-.1.6c0,.3,0,.6-.1,1,0,.1,0,.3,0,.4,0,.2,0,.4,0,.6,0,.1,0,.3,0,.4,0,.2,0,.4,0,.6,0,.2,0,.4,0,.6,0,.6.2,1,.2,1,0,0,0-.4.2-1,0-.2,0-.4,0-.6,0-.2,0-.4,0-.6,0-.1,0-.3,0-.4,0-.2,0-.4,0-.6,0-.1,0-.3,0-.4,0-.4,0-.7-.1-1,0-.4-.1-.6-.1-.6ZM186,28s0,.2-.1.5c0,.2,0,.4-.1.7,0,0,0,.2,0,.3,0,.1,0,.3,0,.5,0,.1,0,.2,0,.3,0,.2,0,.3,0,.5,0,.2,0,.3,0,.5,0,.4.2.7.2.7,0,0,0-.3.2-.7,0-.1,0-.3,0-.5,0-.1,0-.3,0-.5,0,0,0-.2,0-.3,0-.2,0-.3,0-.5,0-.1,0-.2,0-.3,0-.3,0-.5-.1-.7,0-.3-.1-.5-.1-.5ZM96.1,14s0,.5-.1,1.4c0,.6-.1,1.3-.2,2.1,0,.3,0,.6,0,.9,0,.5,0,.9,0,1.4,0,.3,0,.6,0,.9,0,.5,0,.9,0,1.4,0,.5,0,1,.1,1.4.1,1.2.2,2.1.2,2.1,0,0,0-.8.2-2.1,0-.4,0-.9.1-1.4,0-.4,0-.9,0-1.4,0-.3,0-.6,0-.9,0-.5,0-.9,0-1.4,0-.3,0-.6,0-.9,0-.8-.1-1.5-.2-2.1,0-.8-.1-1.4-.1-1.4ZM96.1,27.7s0,.3-.1.7c0,.3-.1.7-.2,1.1,0,.2,0,.3,0,.5,0,.2,0,.5,0,.7,0,.2,0,.3,0,.5,0,.3,0,.5,0,.7,0,.3,0,.5.1.7.1.7.2,1.1.2,1.1,0,0,0-.4.2-1.1,0-.2,0-.5.1-.7,0-.2,0-.5,0-.7,0-.2,0-.3,0-.5,0-.3,0-.5,0-.7,0-.2,0-.3,0-.5,0-.4-.1-.8-.2-1.1,0-.5-.1-.7-.1-.7ZM97.4,13.7s0,.6-.1,1.5c0,.6,0,1.4-.1,2.2,0,.3,0,.6,0,1,0,.5,0,1,0,1.5,0,.3,0,.7,0,1,0,.5,0,1,0,1.5,0,.5,0,1,0,1.5,0,1.3.2,2.2.2,2.2,0,0,0-.9.2-2.2,0-.4,0-.9,0-1.5,0-.5,0-1,0-1.5,0-.3,0-.6,0-1,0-.5,0-1,0-1.5,0-.3,0-.7,0-1,0-.8,0-1.6-.1-2.2,0-.9-.1-1.5-.1-1.5ZM97.4,27.9s0,.3-.1.8c0,.3,0,.7-.1,1.2,0,.2,0,.3,0,.5,0,.3,0,.5,0,.8,0,.2,0,.3,0,.5,0,.3,0,.5,0,.8,0,.3,0,.5,0,.8,0,.7.2,1.2.2,1.2,0,0,0-.5.2-1.2,0-.2,0-.5,0-.8,0-.2,0-.5,0-.8,0-.2,0-.3,0-.5,0-.3,0-.5,0-.8,0-.2,0-.3,0-.5,0-.4,0-.8-.1-1.2,0-.5-.1-.8-.1-.8ZM98.8,13.5s0,.2-.1.6c0,.2,0,.5-.1.8,0,.1,0,.2,0,.4,0,.2,0,.4,0,.6,0,.1,0,.2,0,.4,0,.2,0,.4,0,.6,0,.2,0,.4,0,.6,0,.5.2.8.2.8,0,0,0-.3.2-.8,0-.2,0-.4,0-.6,0-.2,0-.4,0-.6,0-.1,0-.2,0-.4,0-.2,0-.4,0-.6,0-.1,0-.2,0-.4,0-.3,0-.6-.1-.8,0-.3-.1-.6-.1-.6ZM98.8,20.5s0,.3-.1.7c0,.3,0,.6-.1,1,0,.2,0,.3,0,.5,0,.2,0,.5,0,.7,0,.2,0,.3,0,.5,0,.2,0,.5,0,.7,0,.3,0,.5,0,.7,0,.6.2,1,.2,1,0,0,0-.4.2-1,0-.2,0-.4,0-.7,0-.2,0-.5,0-.7,0-.2,0-.3,0-.5,0-.2,0-.5,0-.7,0-.2,0-.3,0-.5,0-.4,0-.8-.1-1,0-.4-.1-.7-.1-.7ZM98.8,29.5s0,.2-.1.6c0,.2,0,.5-.1.9,0,.1,0,.3,0,.4,0,.2,0,.4,0,.6,0,.1,0,.3,0,.4,0,.2,0,.4,0,.6,0,.2,0,.4,0,.6,0,.5.2.9.2.9,0,0,0-.4.2-.9,0-.2,0-.4,0-.6,0-.2,0-.4,0-.6,0-.1,0-.3,0-.4,0-.2,0-.4,0-.6,0-.1,0-.3,0-.4,0-.3,0-.6-.1-.9,0-.4-.1-.6-.1-.6ZM100.1,13.5s0,.2,0,.5c0,.2,0,.5,0,.8,0,.1,0,.2,0,.4,0,.2,0,.4,0,.5,0,.1,0,.2,0,.4,0,.2,0,.4,0,.5,0,.2,0,.4,0,.5,0,.5,0,.8,0,.8,0,0,0-.3.1-.8,0-.2,0-.3,0-.5,0-.2,0-.4,0-.5,0-.1,0-.2,0-.4,0-.2,0-.4,0-.5,0-.1,0-.2,0-.4,0-.3,0-.6,0-.8,0-.3,0-.5,0-.5ZM100.1,19.9s0,.4,0,.9c0,.4,0,.9,0,1.4,0,.2,0,.4,0,.6,0,.3,0,.6,0,.9,0,.2,0,.4,0,.6,0,.3,0,.6,0,.9,0,.3,0,.6,0,.9,0,.8,0,1.4,0,1.4,0,0,0-.6.1-1.4,0-.3,0-.6,0-.9,0-.3,0-.6,0-.9,0-.2,0-.4,0-.6,0-.3,0-.6,0-.9,0-.2,0-.4,0-.6,0-.5,0-1,0-1.4,0-.6,0-.9,0-.9ZM100.1,29.8s0,.2,0,.6c0,.2,0,.5,0,.9,0,.1,0,.3,0,.4,0,.2,0,.4,0,.6,0,.1,0,.3,0,.4,0,.2,0,.4,0,.6,0,.2,0,.4,0,.6,0,.5,0,.9,0,.9,0,0,0-.3.1-.9,0-.2,0-.4,0-.6,0-.2,0-.4,0-.6,0-.1,0-.3,0-.4,0-.2,0-.4,0-.6,0-.1,0-.3,0-.4,0-.3,0-.6,0-.9,0-.4,0-.6,0-.6ZM92.1,17s0,.4,0,1c0,.4,0,.9,0,1.5,0,.2,0,.4,0,.7,0,.3,0,.7,0,1,0,.2,0,.5,0,.7,0,.3,0,.7,0,1,0,.4,0,.7,0,1,0,.9,0,1.5,0,1.5,0,0,0-.6.1-1.5,0-.3,0-.6,0-1,0-.3,0-.7,0-1,0-.2,0-.4,0-.7,0-.3,0-.7,0-1,0-.2,0-.5,0-.7,0-.6,0-1.1,0-1.5,0-.6,0-1,0-1ZM92.1,27.7s0,.1,0,.4c0,.2,0,.4,0,.6,0,0,0,.2,0,.3,0,.1,0,.3,0,.4,0,0,0,.2,0,.3,0,.1,0,.3,0,.4,0,.1,0,.3,0,.4,0,.3,0,.6,0,.6,0,0,0-.2.1-.6,0-.1,0-.2,0-.4,0-.1,0-.3,0-.4,0,0,0-.2,0-.3,0-.1,0-.3,0-.4,0,0,0-.2,0-.3,0-.2,0-.4,0-.6,0-.2,0-.4,0-.4ZM93.4,15.4s0,.4-.1,1.1c0,.4,0,1-.1,1.6,0,.2,0,.5,0,.7,0,.3,0,.7,0,1.1,0,.2,0,.5,0,.7,0,.4,0,.7,0,1.1,0,.4,0,.7,0,1.1,0,.9.2,1.6.2,1.6,0,0,0-.6.2-1.6,0-.3,0-.7,0-1.1,0-.3,0-.7,0-1.1,0-.2,0-.5,0-.7,0-.4,0-.7,0-1.1,0-.2,0-.5,0-.7,0-.6,0-1.1-.1-1.6,0-.6-.1-1.1-.1-1.1ZM93.4,27.7s0,.2-.1.6c0,.2,0,.5-.1.9,0,.1,0,.2,0,.4,0,.2,0,.4,0,.6,0,.1,0,.3,0,.4,0,.2,0,.4,0,.6,0,.2,0,.4,0,.6,0,.5.2.9.2.9,0,0,0-.3.2-.9,0-.2,0-.4,0-.6,0-.2,0-.4,0-.6,0-.1,0-.3,0-.4,0-.2,0-.4,0-.6,0-.1,0-.3,0-.4,0-.3,0-.6-.1-.9,0-.4-.1-.6-.1-.6ZM94.8,14.5s0,.5-.1,1.3c0,.5,0,1.2-.1,1.9,0,.3,0,.6,0,.8,0,.4,0,.8,0,1.3,0,.3,0,.6,0,.8,0,.4,0,.9,0,1.3,0,.4,0,.9,0,1.3,0,1.1.2,1.9.2,1.9,0,0,0-.8.2-1.9,0-.4,0-.8,0-1.3,0-.4,0-.8,0-1.3,0-.3,0-.6,0-.8,0-.4,0-.8,0-1.3,0-.3,0-.6,0-.8,0-.7,0-1.4-.1-1.9,0-.8-.1-1.3-.1-1.3ZM94.8,27.7s0,.3-.1.7c0,.3,0,.6-.1,1,0,.1,0,.3,0,.5,0,.2,0,.5,0,.7,0,.2,0,.3,0,.5,0,.2,0,.5,0,.7,0,.2,0,.5,0,.7,0,.6.2,1,.2,1,0,0,0-.4.2-1,0-.2,0-.4,0-.7,0-.2,0-.4,0-.7,0-.1,0-.3,0-.5,0-.2,0-.5,0-.7,0-.2,0-.3,0-.5,0-.4,0-.7-.1-1,0-.4-.1-.7-.1-.7ZM104.1,14.1s0,.3-.1.7c0,.3-.1.6-.2,1,0,.1,0,.3,0,.5,0,.2,0,.4,0,.7,0,.2,0,.3,0,.5,0,.2,0,.5,0,.7,0,.2,0,.5.1.7.1.6.2,1,.2,1,0,0,0-.4.2-1,0-.2,0-.4.1-.7,0-.2,0-.4,0-.7,0-.1,0-.3,0-.5,0-.2,0-.5,0-.7,0-.2,0-.3,0-.5,0-.4-.1-.7-.2-1,0-.4-.1-.7-.1-.7ZM104.1,22s0,.6-.1,1.4c0,.6-.1,1.3-.2,2.2,0,.3,0,.6,0,1,0,.5,0,1,0,1.4,0,.3,0,.6,0,1,0,.5,0,1,0,1.4,0,.5,0,1,.1,1.4.1,1.3.2,2.2.2,2.2,0,0,0-.9.2-2.2,0-.4,0-.9.1-1.4,0-.5,0-.9,0-1.4,0-.3,0-.6,0-1,0-.5,0-1,0-1.4,0-.3,0-.7,0-1,0-.8-.1-1.6-.2-2.2,0-.9-.1-1.4-.1-1.4ZM105.4,14.7s0,.2-.1.6c0,.3,0,.6-.1.9,0,.1,0,.3,0,.4,0,.2,0,.4,0,.6,0,.1,0,.3,0,.4,0,.2,0,.4,0,.6,0,.2,0,.4,0,.6,0,.5.2.9.2.9,0,0,0-.4.2-.9,0-.2,0-.4,0-.6,0-.2,0-.4,0-.6,0-.1,0-.3,0-.4,0-.2,0-.4,0-.6,0-.1,0-.3,0-.4,0-.3,0-.7-.1-.9,0-.4-.1-.6-.1-.6ZM105.4,22.5s0,.5-.1,1.3c0,.6,0,1.2-.1,2,0,.3,0,.6,0,.9,0,.4,0,.9,0,1.3,0,.3,0,.6,0,.9,0,.5,0,.9,0,1.3,0,.5,0,.9,0,1.3,0,1.2.2,2,.2,2,0,0,0-.8.2-2,0-.4,0-.9,0-1.3,0-.4,0-.9,0-1.3,0-.3,0-.6,0-.9,0-.4,0-.9,0-1.3,0-.3,0-.6,0-.9,0-.8,0-1.4-.1-2,0-.8-.1-1.3-.1-1.3ZM106.7,15.7s0,.2-.1.5c0,.2,0,.4-.1.7,0,.1,0,.2,0,.3,0,.2,0,.3,0,.5,0,.1,0,.2,0,.3,0,.2,0,.3,0,.5,0,.2,0,.3,0,.5,0,.4.2.7.2.7,0,0,0-.3.2-.7,0-.1,0-.3,0-.5,0-.2,0-.3,0-.5,0-.1,0-.2,0-.3,0-.2,0-.3,0-.5,0-.1,0-.2,0-.3,0-.3,0-.5-.1-.7,0-.3-.1-.5-.1-.5ZM106.7,23.2s0,.4-.1,1.1c0,.5,0,1.1-.1,1.7,0,.2,0,.5,0,.8,0,.4,0,.8,0,1.1,0,.3,0,.5,0,.8,0,.4,0,.8,0,1.1,0,.4,0,.8,0,1.1,0,1,.2,1.7.2,1.7,0,0,0-.7.2-1.7,0-.4,0-.7,0-1.1,0-.4,0-.8,0-1.1,0-.3,0-.5,0-.8,0-.4,0-.8,0-1.1,0-.3,0-.5,0-.8,0-.7,0-1.2-.1-1.7,0-.7-.1-1.1-.1-1.1ZM108,17.8s0,0,0,.2c0,0,0,.2,0,.3,0,0,0,.1,0,.2,0,0,0,.2,0,.2,0,0,0,.1,0,.2,0,0,0,.2,0,.2,0,0,0,.2,0,.2,0,.2,0,.3,0,.3,0,0,0-.1.1-.3,0,0,0-.1,0-.2,0,0,0-.2,0-.2,0,0,0-.1,0-.2,0,0,0-.2,0-.2,0,0,0-.1,0-.2,0-.1,0-.2,0-.3,0-.1,0-.2,0-.2ZM108,23.3s0,.4,0,1c0,.4,0,.9,0,1.4,0,.2,0,.4,0,.6,0,.3,0,.6,0,1,0,.2,0,.4,0,.6,0,.3,0,.6,0,1,0,.3,0,.7,0,1,0,.9,0,1.4,0,1.4,0,0,0-.6.1-1.4,0-.3,0-.6,0-1,0-.3,0-.6,0-1,0-.2,0-.4,0-.6,0-.3,0-.6,0-1,0-.2,0-.4,0-.6,0-.5,0-1,0-1.4,0-.6,0-1,0-1ZM110.7,18.7s0,.5,0,1.3c0,.5,0,1.2,0,1.9,0,.3,0,.6,0,.9,0,.4,0,.9,0,1.3,0,.3,0,.6,0,.9,0,.4,0,.9,0,1.3,0,.5,0,.9,0,1.3,0,1.1,0,1.9,0,1.9,0,0,0-.8.1-1.9,0-.4,0-.8,0-1.3,0-.4,0-.8,0-1.3,0-.3,0-.6,0-.9,0-.4,0-.9,0-1.3,0-.3,0-.6,0-.9,0-.7,0-1.4,0-1.9,0-.8,0-1.3,0-1.3ZM109.4,19.9s0,.4,0,1c0,.4,0,.9,0,1.5,0,.2,0,.4,0,.7,0,.3,0,.6,0,1,0,.2,0,.4,0,.7,0,.3,0,.7,0,1,0,.3,0,.7,0,1,0,.9,0,1.5,0,1.5,0,0,0-.6.1-1.5,0-.3,0-.6,0-1,0-.3,0-.6,0-1,0-.2,0-.4,0-.7,0-.3,0-.7,0-1,0-.2,0-.4,0-.7,0-.6,0-1.1,0-1.5,0-.6,0-1,0-1ZM112,19.9s0,.4,0,1c0,.4,0,.9,0,1.5,0,.2,0,.4,0,.7,0,.3,0,.6,0,1,0,.2,0,.4,0,.7,0,.3,0,.7,0,1,0,.3,0,.7,0,1,0,.9,0,1.5,0,1.5,0,0,0-.6.1-1.5,0-.3,0-.6,0-1,0-.3,0-.6,0-1,0-.2,0-.4,0-.7,0-.3,0-.7,0-1,0-.2,0-.4,0-.7,0-.6,0-1.1,0-1.5,0-.6,0-1,0-1ZM113.3,21.5s0,.2,0,.6c0,.3,0,.6,0,.9,0,.1,0,.3,0,.4,0,.2,0,.4,0,.6,0,.1,0,.3,0,.4,0,.2,0,.4,0,.6,0,.2,0,.4,0,.6,0,.5,0,.9,0,.9,0,0,0-.4,0-.9,0-.2,0-.4,0-.6,0-.2,0-.4,0-.6,0-.1,0-.3,0-.4,0-.2,0-.4,0-.6,0-.1,0-.3,0-.4,0-.3,0-.7,0-.9,0-.4,0-.6,0-.6ZM89.5,18.7s0,.5,0,1.3c0,.5,0,1.2,0,1.9,0,.3,0,.6,0,.9,0,.4,0,.9,0,1.3,0,.3,0,.6,0,.9,0,.4,0,.9,0,1.3,0,.5,0,.9,0,1.3,0,1.1.1,1.9.1,1.9,0,0,0-.8,0-1.9,0-.4,0-.8,0-1.3,0-.4,0-.8,0-1.3,0-.3,0-.6,0-.9,0-.4,0-.9,0-1.3,0-.3,0-.6,0-.9,0-.7,0-1.4,0-1.9,0-.8,0-1.3,0-1.3ZM90.8,19.9s0,.4,0,1c0,.4,0,.9,0,1.5,0,.2,0,.4,0,.7,0,.3,0,.6,0,1,0,.2,0,.4,0,.7,0,.3,0,.7,0,1,0,.3,0,.7,0,1,0,.9.1,1.5.1,1.5,0,0,0-.6,0-1.5,0-.3,0-.6,0-1,0-.3,0-.6,0-1,0-.2,0-.4,0-.7,0-.3,0-.7,0-1,0-.2,0-.4,0-.7,0-.6,0-1.1,0-1.5,0-.6,0-1,0-1ZM88.1,19.9s0,.4,0,1c0,.4,0,.9,0,1.5,0,.2,0,.4,0,.7,0,.3,0,.6,0,1,0,.2,0,.4,0,.7,0,.3,0,.7,0,1,0,.3,0,.7,0,1,0,.9.1,1.5.1,1.5,0,0,0-.6,0-1.5,0-.3,0-.6,0-1,0-.3,0-.6,0-1,0-.2,0-.4,0-.7,0-.3,0-.7,0-1,0-.2,0-.4,0-.7,0-.6,0-1.1,0-1.5,0-.6,0-1,0-1ZM86.8,21.5s0,.2,0,.6c0,.3,0,.6,0,.9,0,.1,0,.3,0,.4,0,.2,0,.4,0,.6,0,.1,0,.3,0,.4,0,.2,0,.4,0,.6,0,.2,0,.4,0,.6,0,.5,0,.9,0,.9,0,0,0-.4,0-.9,0-.2,0-.4,0-.6,0-.2,0-.4,0-.6,0-.1,0-.3,0-.4,0-.2,0-.4,0-.6,0-.1,0-.3,0-.4,0-.3,0-.7,0-.9,0-.4,0-.6,0-.6ZM101.4,13.5s0,.2-.1.6c0,.2,0,.5-.1.9,0,.1,0,.3,0,.4,0,.2,0,.4,0,.6,0,.1,0,.3,0,.4,0,.2,0,.4,0,.6,0,.2,0,.4,0,.6,0,.5.2.9.2.9,0,0,0-.3.2-.9,0-.2,0-.4,0-.6,0-.2,0-.4,0-.6,0-.1,0-.3,0-.4,0-.2,0-.4,0-.6,0-.1,0-.3,0-.4,0-.3,0-.6-.1-.9,0-.4-.1-.6-.1-.6ZM101.4,22.2s0,.2-.1.5c0,.2,0,.4-.1.7,0,.1,0,.2,0,.3,0,.2,0,.3,0,.5,0,.1,0,.2,0,.3,0,.2,0,.3,0,.5,0,.2,0,.3,0,.5,0,.4.2.7.2.7,0,0,0-.3.2-.7,0-.1,0-.3,0-.5,0-.2,0-.3,0-.5,0-.1,0-.2,0-.3,0-.2,0-.3,0-.5,0-.1,0-.2,0-.3,0-.3,0-.5-.1-.7,0-.3-.1-.5-.1-.5ZM101.4,29.7s0,.2-.1.6c0,.2,0,.5-.1.9,0,.1,0,.3,0,.4,0,.2,0,.4,0,.6,0,.1,0,.3,0,.4,0,.2,0,.4,0,.6,0,.2,0,.4,0,.6,0,.5.2.9.2.9,0,0,0-.3.2-.9,0-.2,0-.4,0-.6,0-.2,0-.4,0-.6,0-.1,0-.3,0-.4,0-.2,0-.4,0-.6,0-.1,0-.3,0-.4,0-.3,0-.6-.1-.9,0-.4-.1-.6-.1-.6ZM102.7,13.7s0,.3-.1.7c0,.3,0,.7-.1,1.1,0,.2,0,.3,0,.5,0,.2,0,.5,0,.7,0,.2,0,.3,0,.5,0,.2,0,.5,0,.7,0,.3,0,.5,0,.7,0,.7.2,1.1.2,1.1,0,0,0-.4.2-1.1,0-.2,0-.5,0-.7,0-.2,0-.5,0-.7,0-.2,0-.3,0-.5,0-.2,0-.5,0-.7,0-.2,0-.3,0-.5,0-.4,0-.8-.1-1.1,0-.4-.1-.7-.1-.7ZM102.7,21.6s0,.6-.1,1.5c0,.6,0,1.4-.1,2.3,0,.3,0,.7,0,1,0,.5,0,1,0,1.5,0,.3,0,.7,0,1,0,.5,0,1,0,1.5,0,.5,0,1.1,0,1.5,0,1.4.2,2.3.2,2.3,0,0,0-.9.2-2.3,0-.5,0-1,0-1.5,0-.5,0-1,0-1.5,0-.3,0-.7,0-1,0-.5,0-1,0-1.5,0-.3,0-.7,0-1,0-.9,0-1.7-.1-2.3,0-.9-.1-1.5-.1-1.5ZM124.1,14.1s0,.4-.1,1.1c0,.5,0,1-.1,1.7,0,.2,0,.5,0,.7,0,.4,0,.7,0,1.1,0,.2,0,.5,0,.7,0,.4,0,.8,0,1.1,0,.4,0,.8,0,1.1,0,1,.2,1.7.2,1.7,0,0,0-.7.2-1.7,0-.3,0-.7,0-1.1,0-.4,0-.7,0-1.1,0-.2,0-.5,0-.7,0-.4,0-.7,0-1.1,0-.3,0-.5,0-.7,0-.6-.1-1.2-.1-1.7,0-.7-.1-1.1-.1-1.1ZM124.1,24.9s0,.4-.1,1.1c0,.5,0,1-.1,1.6,0,.2,0,.5,0,.7,0,.4,0,.7,0,1.1,0,.2,0,.5,0,.7,0,.4,0,.7,0,1.1,0,.4,0,.8,0,1.1,0,1,.2,1.6.2,1.6,0,0,0-.7.2-1.6,0-.3,0-.7,0-1.1,0-.3,0-.7,0-1.1,0-.2,0-.5,0-.7,0-.4,0-.7,0-1.1,0-.2,0-.5,0-.7,0-.6-.1-1.2-.1-1.6,0-.7-.1-1.1-.1-1.1ZM125.4,13.7s0,.3-.1.7c0,.3,0,.6-.1,1,0,.1,0,.3,0,.5,0,.2,0,.5,0,.7,0,.2,0,.3,0,.5,0,.2,0,.5,0,.7,0,.2,0,.5,0,.7,0,.6.2,1,.2,1,0,0,0-.4.2-1,0-.2,0-.4,0-.7,0-.2,0-.5,0-.7,0-.2,0-.3,0-.5,0-.2,0-.5,0-.7,0-.2,0-.3,0-.5,0-.4-.1-.7-.1-1,0-.4-.1-.7-.1-.7ZM125.4,28.5s0,.3-.1.7c0,.3,0,.6-.1,1,0,.1,0,.3,0,.5,0,.2,0,.5,0,.7,0,.2,0,.3,0,.5,0,.2,0,.5,0,.7,0,.2,0,.5,0,.7,0,.6.2,1,.2,1,0,0,0-.4.2-1,0-.2,0-.4,0-.7,0-.2,0-.5,0-.7,0-.2,0-.3,0-.5,0-.2,0-.5,0-.7,0-.2,0-.3,0-.5,0-.4-.1-.7-.1-1,0-.4-.1-.7-.1-.7ZM126.7,13.5s0,.2-.1.6c0,.3,0,.6-.1.9,0,.1,0,.3,0,.4,0,.2,0,.4,0,.6,0,.1,0,.3,0,.4,0,.2,0,.4,0,.6,0,.2,0,.4,0,.6,0,.6.2.9.2.9,0,0,0-.4.2-.9,0-.2,0-.4,0-.6,0-.2,0-.4,0-.6,0-.1,0-.3,0-.4,0-.2,0-.4,0-.6,0-.1,0-.3,0-.4,0-.4-.1-.7-.1-.9,0-.4-.1-.6-.1-.6ZM126.7,29.3s0,.2-.1.6c0,.3,0,.6-.1.9,0,.1,0,.3,0,.4,0,.2,0,.4,0,.6,0,.1,0,.3,0,.4,0,.2,0,.4,0,.6,0,.2,0,.4,0,.6,0,.6.2.9.2.9,0,0,0-.4.2-.9,0-.2,0-.4,0-.6,0-.2,0-.4,0-.6,0-.1,0-.3,0-.4,0-.2,0-.4,0-.6,0-.1,0-.3,0-.4,0-.4-.1-.7-.1-.9,0-.4-.1-.6-.1-.6ZM128,13.5s0,.2-.1.6c0,.3,0,.6-.1.9,0,.1,0,.3,0,.4,0,.2,0,.4,0,.6,0,.1,0,.3,0,.4,0,.2,0,.4,0,.6,0,.2,0,.4,0,.6,0,.5.2.9.2.9,0,0,0-.4.2-.9,0-.2,0-.4,0-.6,0-.2,0-.4,0-.6,0-.1,0-.3,0-.4,0-.2,0-.4,0-.6,0-.1,0-.3,0-.4,0-.3-.1-.7-.1-.9,0-.4-.1-.6-.1-.6ZM128,29.5s0,.2-.1.6c0,.3,0,.6-.1.9,0,.1,0,.3,0,.4,0,.2,0,.4,0,.6,0,.1,0,.3,0,.4,0,.2,0,.4,0,.6,0,.2,0,.4,0,.6,0,.5.2.9.2.9,0,0,0-.4.2-.9,0-.2,0-.4,0-.6,0-.2,0-.4,0-.6,0-.1,0-.3,0-.4,0-.2,0-.4,0-.6,0-.1,0-.3,0-.4,0-.3-.1-.7-.1-.9,0-.4-.1-.6-.1-.6ZM120.1,16.7s0,.7,0,1.8c0,.7,0,1.6,0,2.6,0,.4,0,.8,0,1.2,0,.6,0,1.2,0,1.8,0,.4,0,.8,0,1.2,0,.6,0,1.2,0,1.8,0,.6,0,1.2,0,1.8,0,1.6,0,2.6,0,2.6,0,0,0-1.1.1-2.6,0-.5,0-1.1,0-1.8,0-.6,0-1.2,0-1.8,0-.4,0-.8,0-1.2,0-.6,0-1.2,0-1.8,0-.4,0-.8,0-1.2,0-1,0-1.9,0-2.6,0-1.1,0-1.8,0-1.8ZM121.4,15.4s0,.8-.1,2.1c0,.9,0,1.9-.1,3.1,0,.4,0,.9,0,1.4,0,.7,0,1.4,0,2.1,0,.5,0,.9,0,1.4,0,.7,0,1.4,0,2.1,0,.7,0,1.4,0,2.1,0,1.8.2,3.1.2,3.1,0,0,0-1.3.2-3.1,0-.6,0-1.3,0-2.1,0-.7,0-1.3,0-2.1,0-.5,0-.9,0-1.4,0-.7,0-1.4,0-2.1,0-.5,0-.9,0-1.4,0-1.2,0-2.2-.1-3.1,0-1.3-.1-2.1-.1-2.1ZM122.7,14.6s0,.9-.1,2.3c0,.9,0,2.1-.1,3.4,0,.5,0,1,0,1.5,0,.7,0,1.5,0,2.3,0,.5,0,1,0,1.5,0,.8,0,1.5,0,2.3,0,.8,0,1.6,0,2.3,0,2,.2,3.4.2,3.4,0,0,0-1.4.2-3.4,0-.7,0-1.4,0-2.3,0-.7,0-1.5,0-2.3,0-.5,0-1,0-1.5,0-.8,0-1.5,0-2.3,0-.5,0-1,0-1.5,0-1.3,0-2.4-.1-3.4,0-1.4-.1-2.3-.1-2.3ZM138.6,20.9s0,.3,0,.7c0,.3,0,.7,0,1.1,0,.2,0,.3,0,.5,0,.2,0,.5,0,.7,0,.2,0,.3,0,.5,0,.3,0,.5,0,.7,0,.3,0,.5,0,.7,0,.7,0,1.1,0,1.1,0,0,0-.4.1-1.1,0-.2,0-.5,0-.7,0-.2,0-.5,0-.7,0-.2,0-.3,0-.5,0-.2,0-.5,0-.7,0-.2,0-.3,0-.5,0-.4,0-.8,0-1.1,0-.5,0-.7,0-.7ZM140,21.7s0,.2,0,.6c0,.2,0,.5,0,.8,0,.1,0,.2,0,.4,0,.2,0,.4,0,.6,0,.1,0,.3,0,.4,0,.2,0,.4,0,.6,0,.2,0,.4,0,.6,0,.5,0,.8,0,.8,0,0,0-.3.1-.8,0-.2,0-.4,0-.6,0-.2,0-.4,0-.6,0-.1,0-.3,0-.4,0-.2,0-.4,0-.6,0-.1,0-.3,0-.4,0-.3,0-.6,0-.8,0-.3,0-.6,0-.6ZM141.3,22.5s0,.1,0,.4c0,.1,0,.3,0,.5,0,0,0,.2,0,.2,0,.1,0,.2,0,.4,0,0,0,.2,0,.2,0,.1,0,.2,0,.4,0,.1,0,.2,0,.4,0,.3,0,.5,0,.5,0,0,0-.2,0-.5,0-.1,0-.2,0-.4,0-.1,0-.2,0-.4,0,0,0-.2,0-.2,0-.1,0-.2,0-.4,0,0,0-.2,0-.2,0-.2,0-.4,0-.5,0-.2,0-.4,0-.4ZM117.4,20.9s0,.3,0,.7c0,.3,0,.7,0,1.1,0,.2,0,.3,0,.5,0,.2,0,.5,0,.7,0,.2,0,.3,0,.5,0,.3,0,.5,0,.7,0,.3,0,.5,0,.7,0,.7.1,1.1.1,1.1,0,0,0-.4,0-1.1,0-.2,0-.5,0-.7,0-.2,0-.5,0-.7,0-.2,0-.3,0-.5,0-.2,0-.5,0-.7,0-.2,0-.3,0-.5,0-.4,0-.8,0-1.1,0-.5,0-.7,0-.7ZM118.8,18.7s0,.5,0,1.3c0,.5,0,1.2,0,1.9,0,.3,0,.6,0,.9,0,.4,0,.8,0,1.3,0,.3,0,.6,0,.9,0,.4,0,.9,0,1.3,0,.5,0,.9,0,1.3,0,1.1.1,1.9.1,1.9,0,0,0-.8,0-1.9,0-.4,0-.8,0-1.3,0-.4,0-.8,0-1.3,0-.3,0-.6,0-.9,0-.4,0-.9,0-1.3,0-.3,0-.6,0-.9,0-.7,0-1.4,0-1.9,0-.8,0-1.3,0-1.3ZM132,14.1s0,.4-.1,1.1c0,.5,0,1-.1,1.7,0,.2,0,.5,0,.7,0,.4,0,.7,0,1.1,0,.2,0,.5,0,.7,0,.4,0,.8,0,1.1,0,.4,0,.8,0,1.1,0,1,.2,1.7.2,1.7,0,0,0-.7.2-1.7,0-.3,0-.7,0-1.1,0-.4,0-.7,0-1.1,0-.2,0-.5,0-.7,0-.4,0-.7,0-1.1,0-.3,0-.5,0-.7,0-.6-.1-1.2-.1-1.7,0-.7-.1-1.1-.1-1.1ZM132,24.9s0,.4-.1,1.1c0,.5,0,1-.1,1.6,0,.2,0,.5,0,.7,0,.4,0,.7,0,1.1,0,.2,0,.5,0,.7,0,.4,0,.7,0,1.1,0,.4,0,.8,0,1.1,0,1,.2,1.6.2,1.6,0,0,0-.7.2-1.6,0-.3,0-.7,0-1.1,0-.3,0-.7,0-1.1,0-.2,0-.5,0-.7,0-.4,0-.7,0-1.1,0-.2,0-.5,0-.7,0-.6-.1-1.2-.1-1.6,0-.7-.1-1.1-.1-1.1ZM130.7,13.7s0,.3-.1.7c0,.3,0,.6-.1,1,0,.1,0,.3,0,.5,0,.2,0,.5,0,.7,0,.2,0,.3,0,.5,0,.2,0,.5,0,.7,0,.2,0,.5,0,.7,0,.6.2,1,.2,1,0,0,0-.4.2-1,0-.2,0-.4,0-.7,0-.2,0-.5,0-.7,0-.2,0-.3,0-.5,0-.2,0-.5,0-.7,0-.2,0-.3,0-.5,0-.4-.1-.7-.1-1,0-.4-.1-.7-.1-.7ZM130.7,28.5s0,.3-.1.7c0,.3,0,.6-.1,1,0,.1,0,.3,0,.5,0,.2,0,.5,0,.7,0,.2,0,.3,0,.5,0,.2,0,.5,0,.7,0,.2,0,.5,0,.7,0,.6.2,1,.2,1,0,0,0-.4.2-1,0-.2,0-.4,0-.7,0-.2,0-.5,0-.7,0-.2,0-.3,0-.5,0-.2,0-.5,0-.7,0-.2,0-.3,0-.5,0-.4-.1-.7-.1-1,0-.4-.1-.7-.1-.7ZM129.4,13.5s0,.2-.1.6c0,.3,0,.6-.1.9,0,.1,0,.3,0,.4,0,.2,0,.4,0,.6,0,.1,0,.3,0,.4,0,.2,0,.4,0,.6,0,.2,0,.4,0,.6,0,.6.2.9.2.9,0,0,0-.4.2-.9,0-.2,0-.4,0-.6,0-.2,0-.4,0-.6,0-.1,0-.3,0-.4,0-.2,0-.4,0-.6,0-.1,0-.3,0-.4,0-.4-.1-.7-.1-.9,0-.4-.1-.6-.1-.6ZM129.4,29.3s0,.2-.1.6c0,.3,0,.6-.1.9,0,.1,0,.3,0,.4,0,.2,0,.4,0,.6,0,.1,0,.3,0,.4,0,.2,0,.4,0,.6,0,.2,0,.4,0,.6,0,.6.2.9.2.9,0,0,0-.4.2-.9,0-.2,0-.4,0-.6,0-.2,0-.4,0-.6,0-.1,0-.3,0-.4,0-.2,0-.4,0-.6,0-.1,0-.3,0-.4,0-.4-.1-.7-.1-.9,0-.4-.1-.6-.1-.6ZM136,16.7s0,.7,0,1.8c0,.7,0,1.6,0,2.6,0,.4,0,.8,0,1.2,0,.6,0,1.2,0,1.8,0,.4,0,.8,0,1.2,0,.6,0,1.2,0,1.8,0,.6,0,1.2,0,1.8,0,1.6.1,2.6.1,2.6,0,0,0-1.1,0-2.6,0-.5,0-1.1,0-1.8,0-.6,0-1.2,0-1.8,0-.4,0-.8,0-1.2,0-.6,0-1.2,0-1.8,0-.4,0-.8,0-1.2,0-1,0-1.9,0-2.6,0-1.1,0-1.8,0-1.8ZM134.7,15.4s0,.8-.1,2.1c0,.9,0,1.9-.1,3.1,0,.4,0,.9,0,1.4,0,.7,0,1.4,0,2.1,0,.5,0,.9,0,1.4,0,.7,0,1.4,0,2.1,0,.7,0,1.4,0,2.1,0,1.8.2,3.1.2,3.1,0,0,0-1.3.2-3.1,0-.6,0-1.3,0-2.1,0-.7,0-1.3,0-2.1,0-.5,0-.9,0-1.4,0-.7,0-1.4,0-2.1,0-.5,0-.9,0-1.4,0-1.2,0-2.2-.1-3.1,0-1.3-.1-2.1-.1-2.1ZM133.3,14.6s0,.9-.1,2.3c0,.9,0,2.1-.1,3.4,0,.5,0,1,0,1.5,0,.7,0,1.5,0,2.3,0,.5,0,1,0,1.5,0,.8,0,1.5,0,2.3,0,.8,0,1.6,0,2.3,0,2,.2,3.4.2,3.4,0,0,0-1.4.2-3.4,0-.7,0-1.4,0-2.3,0-.7,0-1.5,0-2.3,0-.5,0-1,0-1.5,0-.8,0-1.5,0-2.3,0-.5,0-1,0-1.5,0-1.3,0-2.4-.1-3.4,0-1.4-.1-2.3-.1-2.3ZM137.3,18.7s0,.5,0,1.3c0,.5,0,1.2,0,1.9,0,.3,0,.6,0,.9,0,.4,0,.8,0,1.3,0,.3,0,.6,0,.9,0,.4,0,.9,0,1.3,0,.5,0,.9,0,1.3,0,1.1,0,1.9,0,1.9,0,0,0-.8.1-1.9,0-.4,0-.8,0-1.3,0-.4,0-.8,0-1.3,0-.3,0-.6,0-.9,0-.4,0-.9,0-1.3,0-.3,0-.6,0-.9,0-.7,0-1.4,0-1.9,0-.8,0-1.3,0-1.3ZM116.1,21.7s0,.2,0,.6c0,.2,0,.5,0,.8,0,.1,0,.2,0,.4,0,.2,0,.4,0,.6,0,.1,0,.3,0,.4,0,.2,0,.4,0,.6,0,.2,0,.4,0,.6,0,.5.1.8.1.8,0,0,0-.3,0-.8,0-.2,0-.4,0-.6,0-.2,0-.4,0-.6,0-.1,0-.3,0-.4,0-.2,0-.4,0-.6,0-.1,0-.3,0-.4,0-.3,0-.6,0-.8,0-.3,0-.6,0-.6ZM114.8,22.5s0,.1,0,.4c0,.1,0,.3,0,.5,0,0,0,.2,0,.2,0,.1,0,.2,0,.4,0,0,0,.2,0,.2,0,.1,0,.2,0,.4,0,.1,0,.2,0,.4,0,.3,0,.5,0,.5,0,0,0-.2,0-.5,0-.1,0-.2,0-.4,0-.1,0-.2,0-.4,0,0,0-.2,0-.2,0-.1,0-.2,0-.4,0,0,0-.2,0-.2,0-.2,0-.4,0-.5,0-.2,0-.4,0-.4Z"/>
</svg>
