<?xml version="1.0" encoding="UTF-8"?>
<svg xmlns="http://www.w3.org/2000/svg" xmlns:xlink="http://www.w3.org/1999/xlink" version="1.1" viewBox="0 0 512 512">
  <!-- Generator: Adobe Illustrator 30.0.0, SVG Export Plug-In . SVG Version: 2.1.1 Build 123)  -->
  <defs>
    <style>
      .st0 {
        mask: url(#mask);
      }

      .st1 {
        fill: url(#linear-gradient67);
      }

      .st2 {
        fill: url(#linear-gradient66);
      }

      .st3 {
        fill: url(#linear-gradient42);
      }

      .st4 {
        fill: url(#linear-gradient54);
      }

      .st5 {
        fill: url(#linear-gradient21);
      }

      .st6 {
        fill: #f4f4f4;
      }

      .st7 {
        fill: url(#linear-gradient16);
      }

      .st7, .st8 {
        fill-opacity: .8;
        opacity: .8;
      }

      .st8 {
        fill: url(#linear-gradient37);
      }

      .st9 {
        fill: url(#linear-gradient18);
      }

      .st9, .st10 {
        fill-opacity: .9;
        opacity: .9;
      }

      .st10 {
        fill: url(#linear-gradient39);
      }

      .st11 {
        isolation: isolate;
      }

      .st12 {
        mask: url(#mask-1);
      }

      .st13 {
        fill: url(#linear-gradient55);
      }

      .st13, .st14, .st15 {
        fill-opacity: 0;
        opacity: 0;
      }

      .st14 {
        fill: url(#linear-gradient43);
      }

      .st16 {
        fill: #f2a322;
      }

      .st17 {
        fill: url(#linear-gradient34);
      }

      .st17, .st18 {
        fill-opacity: .6;
        opacity: .6;
      }

      .st18 {
        fill: url(#linear-gradient13);
      }

      .st19 {
        fill: url(#linear-gradient61);
      }

      .st19, .st20 {
        fill-opacity: .5;
        opacity: .5;
      }

      .st20 {
        fill: url(#linear-gradient49);
      }

      .st21 {
        fill: url(#linear-gradient11);
      }

      .st21, .st22 {
        fill-opacity: .5;
        opacity: .5;
      }

      .st22 {
        fill: url(#linear-gradient32);
      }

      .st23 {
        fill: url(#linear-gradient60);
      }

      .st23, .st24 {
        fill-opacity: .5;
        opacity: .5;
      }

      .st24 {
        fill: url(#linear-gradient48);
      }

      .st25 {
        fill: url(#linear-gradient52);
      }

      .st25, .st26 {
        fill-opacity: .8;
        opacity: .8;
      }

      .st26 {
        fill: url(#linear-gradient64);
      }

      .st27 {
        fill: url(#linear-gradient35);
      }

      .st27, .st28 {
        fill-opacity: .7;
        opacity: .7;
      }

      .st28 {
        fill: url(#linear-gradient14);
      }

      .st29 {
        fill: url(#linear-gradient38);
      }

      .st29, .st30 {
        fill-opacity: .8;
        opacity: .8;
      }

      .st30 {
        fill: url(#linear-gradient17);
      }

      .st31 {
        fill: url(#linear-gradient63);
      }

      .st31, .st32 {
        fill-opacity: .7;
        opacity: .7;
      }

      .st32 {
        fill: url(#linear-gradient51);
      }

      .st33 {
        fill: url(#linear-gradient15);
      }

      .st33, .st34 {
        fill-opacity: .7;
        opacity: .7;
      }

      .st34 {
        fill: url(#linear-gradient36);
      }

      .st35 {
        fill: url(#linear-gradient50);
      }

      .st35, .st36 {
        fill-opacity: .6;
        opacity: .6;
      }

      .st36 {
        fill: url(#linear-gradient62);
      }

      .st37 {
        fill: url(#linear-gradient29);
      }

      .st37, .st38 {
        fill-opacity: .4;
        opacity: .4;
      }

      .st39 {
        fill: url(#linear-gradient30);
      }

      .st39, .st40 {
        fill-opacity: .4;
        opacity: .4;
      }

      .st41 {
        fill: url(#linear-gradient12);
      }

      .st41, .st42 {
        fill-opacity: .6;
        opacity: .6;
      }

      .st42 {
        fill: url(#linear-gradient33);
      }

      .st43 {
        fill: url(#linear-gradient31);
      }

      .st43, .st44 {
        fill-opacity: .5;
        opacity: .5;
      }

      .st44 {
        fill: url(#linear-gradient10);
      }

      .st45 {
        fill: url(#linear-gradient28);
      }

      .st45, .st46 {
        fill-opacity: .3;
        opacity: .3;
      }

      .st47 {
        fill: url(#linear-gradient47);
      }

      .st47, .st48 {
        fill-opacity: .4;
        opacity: .4;
      }

      .st48 {
        fill: url(#linear-gradient59);
      }

      .st49, .st50 {
        fill: #fff;
      }

      .st49, .st51 {
        mix-blend-mode: soft-light;
      }

      .st52 {
        fill: url(#linear-gradient4);
      }

      .st52, .st53 {
        fill-opacity: .2;
        opacity: .2;
      }

      .st15 {
        fill: url(#linear-gradient);
      }

      .st54 {
        fill: url(#linear-gradient57);
      }

      .st54, .st55 {
        fill-opacity: .2;
        opacity: .2;
      }

      .st55 {
        fill: url(#linear-gradient45);
      }

      .st56 {
        fill: url(#linear-gradient23);
      }

      .st56, .st57 {
        fill-opacity: 0;
        opacity: 0;
      }

      .st58 {
        fill: url(#linear-gradient5);
      }

      .st58, .st59 {
        fill-opacity: .2;
        opacity: .2;
      }

      .st60 {
        fill: url(#linear-gradient24);
      }

      .st60, .st61 {
        fill-opacity: .1;
        opacity: .1;
      }

      .st62 {
        fill: url(#linear-gradient19);
      }

      .st62, .st63 {
        fill-opacity: .9;
        opacity: .9;
      }

      .st63 {
        fill: url(#linear-gradient40);
      }

      .st46 {
        fill: url(#linear-gradient7);
      }

      .st38 {
        fill: url(#linear-gradient8);
      }

      .st40 {
        fill: url(#linear-gradient9);
      }

      .st64 {
        fill: url(#linear-gradient56);
      }

      .st64, .st65 {
        fill-opacity: 0;
        opacity: 0;
      }

      .st65 {
        fill: url(#linear-gradient44);
      }

      .st61 {
        fill: url(#linear-gradient3);
      }

      .st66 {
        fill: url(#linear-gradient22);
      }

      .st66, .st67 {
        fill-opacity: 0;
        opacity: 0;
      }

      .st68 {
        fill: url(#linear-gradient41);
      }

      .st68, .st69 {
        fill-opacity: 1;
        opacity: 1;
      }

      .st69 {
        fill: url(#linear-gradient20);
      }

      .st70 {
        fill: url(#linear-gradient65);
      }

      .st70, .st71 {
        fill-opacity: .9;
        opacity: .9;
      }

      .st71 {
        fill: url(#linear-gradient53);
      }

      .st53 {
        fill: url(#linear-gradient25);
      }

      .st72 {
        fill: url(#linear-gradient46);
      }

      .st72, .st73 {
        fill-opacity: .3;
        opacity: .3;
      }

      .st73 {
        fill: url(#linear-gradient58);
      }

      .st59 {
        fill: url(#linear-gradient26);
      }

      .st74 {
        fill: url(#linear-gradient27);
      }

      .st74, .st75 {
        fill-opacity: .3;
        opacity: .3;
      }

      .st76 {
        fill: #db1c27;
      }

      .st77 {
        opacity: .9;
      }

      .st78 {
        opacity: .8;
      }

      .st79 {
        opacity: .6;
      }

      .st80 {
        opacity: .6;
      }

      .st81 {
        opacity: .2;
      }

      .st82 {
        opacity: .2;
      }

      .st57 {
        fill: url(#linear-gradient2);
      }

      .st51 {
        fill: #666;
      }

      .st75 {
        fill: url(#linear-gradient6);
      }

      .st67 {
        fill: url(#linear-gradient1);
      }

      .st83 {
        fill: #40df17;
      }
    </style>
    <linearGradient id="linear-gradient" x1="253" y1="576.4" x2="253" y2="2.5" gradientUnits="userSpaceOnUse">
      <stop offset="0" stop-color="#17171a"/>
      <stop offset="1" stop-color="#3f4045"/>
    </linearGradient>
    <linearGradient id="linear-gradient1" x1="253" y1="571.9" x2="253" y2="4.9" xlink:href="#linear-gradient"/>
    <linearGradient id="linear-gradient2" x1="253" y1="567.5" x2="253" y2="7.3" xlink:href="#linear-gradient"/>
    <linearGradient id="linear-gradient3" x1="253" y1="563.1" x2="253" y2="9.8" xlink:href="#linear-gradient"/>
    <linearGradient id="linear-gradient4" x1="253" y1="558.7" x2="253" y2="12.2" xlink:href="#linear-gradient"/>
    <linearGradient id="linear-gradient5" x1="253" y1="554.2" x2="253" y2="14.7" xlink:href="#linear-gradient"/>
    <linearGradient id="linear-gradient6" x1="253" y1="549.8" x2="253" y2="17.1" xlink:href="#linear-gradient"/>
    <linearGradient id="linear-gradient7" x1="253" y1="545.4" x2="253" y2="19.6" xlink:href="#linear-gradient"/>
    <linearGradient id="linear-gradient8" x1="253" y1="540.9" x2="253" y2="22" xlink:href="#linear-gradient"/>
    <linearGradient id="linear-gradient9" x1="253" y1="536.5" x2="253" y2="24.5" xlink:href="#linear-gradient"/>
    <linearGradient id="linear-gradient10" x1="253" y1="532.1" x2="253" y2="26.9" xlink:href="#linear-gradient"/>
    <linearGradient id="linear-gradient11" x1="253" y1="527.6" x2="253" y2="29.3" xlink:href="#linear-gradient"/>
    <linearGradient id="linear-gradient12" x1="253" y1="523.2" x2="253" y2="31.8" xlink:href="#linear-gradient"/>
    <linearGradient id="linear-gradient13" x1="253" y1="518.8" x2="253" y2="34.2" xlink:href="#linear-gradient"/>
    <linearGradient id="linear-gradient14" x1="253" y1="514.3" x2="253" y2="36.7" xlink:href="#linear-gradient"/>
    <linearGradient id="linear-gradient15" x1="253" y1="509.9" x2="253" y2="39.1" xlink:href="#linear-gradient"/>
    <linearGradient id="linear-gradient16" x1="253" y1="505.5" x2="253" y2="41.6" xlink:href="#linear-gradient"/>
    <linearGradient id="linear-gradient17" x1="253" y1="501.1" x2="253" y2="44" xlink:href="#linear-gradient"/>
    <linearGradient id="linear-gradient18" x1="253" y1="496.6" x2="253" y2="46.4" xlink:href="#linear-gradient"/>
    <linearGradient id="linear-gradient19" x1="253" y1="492.2" x2="253" y2="48.9" xlink:href="#linear-gradient"/>
    <linearGradient id="linear-gradient20" x1="253" y1="487.8" x2="253" y2="51.3" xlink:href="#linear-gradient"/>
    <linearGradient id="linear-gradient21" x1="253" y1="483.3" x2="253" y2="53.8" xlink:href="#linear-gradient"/>
    <linearGradient id="linear-gradient22" x1="253" y1="571.9" x2="253" y2="4.9" xlink:href="#linear-gradient"/>
    <linearGradient id="linear-gradient23" x1="253" y1="567.5" x2="253" y2="7.3" xlink:href="#linear-gradient"/>
    <linearGradient id="linear-gradient24" x1="253" y1="563.1" x2="253" y2="9.8" xlink:href="#linear-gradient"/>
    <linearGradient id="linear-gradient25" x1="253" y1="558.7" x2="253" y2="12.2" xlink:href="#linear-gradient"/>
    <linearGradient id="linear-gradient26" x1="253" y1="554.2" x2="253" y2="14.7" xlink:href="#linear-gradient"/>
    <linearGradient id="linear-gradient27" x1="253" y1="549.8" x2="253" y2="17.1" xlink:href="#linear-gradient"/>
    <linearGradient id="linear-gradient28" x1="253" y1="545.4" x2="253" y2="19.6" xlink:href="#linear-gradient"/>
    <linearGradient id="linear-gradient29" x1="253" y1="540.9" x2="253" y2="22" xlink:href="#linear-gradient"/>
    <linearGradient id="linear-gradient30" x1="253" y1="536.5" x2="253" y2="24.5" xlink:href="#linear-gradient"/>
    <linearGradient id="linear-gradient31" x1="253" y1="532.1" x2="253" y2="26.9" xlink:href="#linear-gradient"/>
    <linearGradient id="linear-gradient32" x1="253" y1="527.6" x2="253" y2="29.3" xlink:href="#linear-gradient"/>
    <linearGradient id="linear-gradient33" x1="253" y1="523.2" x2="253" y2="31.8" xlink:href="#linear-gradient"/>
    <linearGradient id="linear-gradient34" x1="253" y1="518.8" x2="253" y2="34.2" xlink:href="#linear-gradient"/>
    <linearGradient id="linear-gradient35" x1="253" y1="514.3" x2="253" y2="36.7" xlink:href="#linear-gradient"/>
    <linearGradient id="linear-gradient36" x1="253" y1="509.9" x2="253" y2="39.1" xlink:href="#linear-gradient"/>
    <linearGradient id="linear-gradient37" x1="253" y1="505.5" x2="253" y2="41.6" xlink:href="#linear-gradient"/>
    <linearGradient id="linear-gradient38" x1="253" y1="501.1" x2="253" y2="44" xlink:href="#linear-gradient"/>
    <linearGradient id="linear-gradient39" x1="253" y1="496.6" x2="253" y2="46.4" xlink:href="#linear-gradient"/>
    <linearGradient id="linear-gradient40" x1="253" y1="492.2" x2="253" y2="48.9" xlink:href="#linear-gradient"/>
    <linearGradient id="linear-gradient41" x1="253" y1="487.8" x2="253" y2="51.3" xlink:href="#linear-gradient"/>
    <linearGradient id="linear-gradient42" x1="253" y1="483.3" x2="253" y2="53.8" xlink:href="#linear-gradient"/>
    <linearGradient id="linear-gradient43" x1="253" y1="497.7" x2="253" y2="18" xlink:href="#linear-gradient"/>
    <linearGradient id="linear-gradient44" x1="253" y1="495.6" x2="253" y2="19.4" xlink:href="#linear-gradient"/>
    <linearGradient id="linear-gradient45" x1="253" y1="493.6" x2="253" y2="20.9" xlink:href="#linear-gradient"/>
    <linearGradient id="linear-gradient46" x1="253" y1="491.5" x2="253" y2="22.3" xlink:href="#linear-gradient"/>
    <linearGradient id="linear-gradient47" x1="253" y1="489.5" x2="253" y2="23.7" xlink:href="#linear-gradient"/>
    <linearGradient id="linear-gradient48" x1="253" y1="487.4" x2="253" y2="25.1" xlink:href="#linear-gradient"/>
    <linearGradient id="linear-gradient49" x1="253" y1="485.4" x2="253" y2="26.5" xlink:href="#linear-gradient"/>
    <linearGradient id="linear-gradient50" x1="253" y1="483.3" x2="253" y2="28" xlink:href="#linear-gradient"/>
    <linearGradient id="linear-gradient51" x1="253" y1="481.3" x2="253" y2="29.4" xlink:href="#linear-gradient"/>
    <linearGradient id="linear-gradient52" x1="253" y1="479.2" x2="253" y2="30.8" xlink:href="#linear-gradient"/>
    <linearGradient id="linear-gradient53" x1="253" y1="477.1" x2="253" y2="32.2" xlink:href="#linear-gradient"/>
    <linearGradient id="linear-gradient54" x1="253" y1="475.1" x2="253" y2="33.6" xlink:href="#linear-gradient"/>
    <linearGradient id="linear-gradient55" x1="253" y1="480.9" x2="253" y2="23.8" xlink:href="#linear-gradient"/>
    <linearGradient id="linear-gradient56" x1="253" y1="480.3" x2="253" y2="24.6" xlink:href="#linear-gradient"/>
    <linearGradient id="linear-gradient57" x1="253" y1="479.7" x2="253" y2="25.5" xlink:href="#linear-gradient"/>
    <linearGradient id="linear-gradient58" x1="253" y1="479.1" x2="253" y2="26.3" xlink:href="#linear-gradient"/>
    <linearGradient id="linear-gradient59" x1="253" y1="478.5" x2="253" y2="27.1" xlink:href="#linear-gradient"/>
    <linearGradient id="linear-gradient60" x1="253" y1="477.9" x2="253" y2="27.9" xlink:href="#linear-gradient"/>
    <linearGradient id="linear-gradient61" x1="253" y1="477.3" x2="253" y2="28.7" xlink:href="#linear-gradient"/>
    <linearGradient id="linear-gradient62" x1="253" y1="476.7" x2="253" y2="29.5" xlink:href="#linear-gradient"/>
    <linearGradient id="linear-gradient63" x1="253" y1="476.1" x2="253" y2="30.4" xlink:href="#linear-gradient"/>
    <linearGradient id="linear-gradient64" x1="253" y1="475.5" x2="253" y2="31.2" xlink:href="#linear-gradient"/>
    <linearGradient id="linear-gradient65" x1="253" y1="474.9" x2="253" y2="32" xlink:href="#linear-gradient"/>
    <linearGradient id="linear-gradient66" x1="253" y1="474.3" x2="253" y2="32.8" xlink:href="#linear-gradient"/>
    <mask id="mask" x="12.3" y="4.8" width="481.3" height="476.4" maskUnits="userSpaceOnUse">
      <path id="Rectangle_78" data-name="Rectangle_7" class="st50" d="M169,481.2c-51.9,0-81.7,0-111.5-29-29.8-29-29.8-58-29.8-108.5v-169.9c0-50.5,0-79.5,29.8-108.5,29.8-29,59.6-29,111.5-29h174.6c51.9,0,81.7,0,111.5,29,29.8,29,29.8,58,29.8,108.5v169.9c0,50.5,0,79.5-29.8,108.5-29.8,29-59.6,29-111.5,29h-174.6Z"/>
    </mask>
    <mask id="mask-1" x="27.3" y="21.6" width="451.3" height="446.7" maskUnits="userSpaceOnUse">
      <path id="Rectangle_79" data-name="Rectangle_7" class="st50" d="M174.3,468.4c-48.6,0-76.6,0-104.5-27.2-28-27.2-28-54.4-28-101.7v-159.4c0-47.3,0-74.5,28-101.7,28-27.2,55.9-27.2,104.5-27.2h163.8c48.6,0,76.6,0,104.5,27.2,28,27.2,28,54.4,28,101.7v159.4c0,47.3,0,74.5-28,101.7-28,27.2-55.9,27.2-104.5,27.2h-163.8Z"/>
    </mask>
    <linearGradient id="linear-gradient67" x1="148.4" y1="5.9" x2="363.9" y2="513.6" gradientUnits="userSpaceOnUse">
      <stop offset="0" stop-color="#44385e"/>
      <stop offset=".6" stop-color="#2f2c3a"/>
      <stop offset="1" stop-color="#26282b"/>
    </linearGradient>
  </defs>
  <g class="st11">
    <g id="Layer_1">
      <g id="Shadow" class="st81">
        <g class="st77">
          <g class="st82">
            <path id="Rectangle_7" class="st15" d="M148.7,576.4c-61.9,0-97.6,0-133.2-34.7-35.6-34.7-35.6-69.3-35.6-129.6v-245.4c0-60.3,0-94.9,35.6-129.6C51.1,2.5,86.8,2.5,148.7,2.5h208.6c61.9,0,97.6,0,133.2,34.7,35.6,34.7,35.6,69.3,35.6,129.6v245.4c0,60.3,0,94.9-35.6,129.6-35.6,34.7-71.2,34.7-133.2,34.7h-208.6Z"/>
            <path class="st67" d="M149.5,571.9c-61.4,0-96.8,0-132.1-34.4-35.3-34.4-35.3-68.8-35.3-128.5v-241.2c0-59.8,0-94.2,35.3-128.5C52.8,4.9,88.1,4.9,149.5,4.9h206.9c61.4,0,96.8,0,132.1,34.4,35.3,34.4,35.3,68.8,35.3,128.5v241.2c0,59.8,0,94.2-35.3,128.5-35.3,34.4-70.6,34.4-132.1,34.4h-206.9Z"/>
            <path class="st57" d="M150.4,567.5c-60.9,0-96,0-131-34.1-35-34.1-35-68.2-35-127.5v-237c0-59.3,0-93.4,35-127.5C54.4,7.3,89.4,7.3,150.4,7.3h205.2c60.9,0,96,0,131,34.1,35,34.1,35,68.2,35,127.5v237c0,59.3,0,93.4-35,127.5-35,34.1-70.1,34.1-131,34.1h-205.2Z"/>
            <path class="st61" d="M151.2,563.1c-60.4,0-95.2,0-129.9-33.8-34.7-33.8-34.7-67.6-34.7-126.5v-232.8c0-58.8,0-92.6,34.7-126.5C56,9.8,90.8,9.8,151.2,9.8h203.6c60.4,0,95.2,0,129.9,33.8,34.8,33.8,34.8,67.6,34.8,126.5v232.8c0,58.8,0,92.6-34.8,126.5-34.7,33.8-69.5,33.8-129.9,33.8h-203.6Z"/>
            <path class="st52" d="M152.1,558.7c-59.9,0-94.4,0-128.9-33.5-34.5-33.5-34.5-67.1-34.5-125.4v-228.5c0-58.3,0-91.9,34.5-125.4C57.7,12.2,92.1,12.2,152.1,12.2h201.9c59.9,0,94.4,0,128.9,33.5,34.5,33.5,34.5,67.1,34.5,125.4v228.5c0,58.3,0,91.9-34.5,125.4-34.5,33.5-68.9,33.5-128.9,33.5h-201.9Z"/>
            <path class="st58" d="M152.9,554.2c-59.4,0-93.6,0-127.8-33.3-34.2-33.3-34.2-66.5-34.2-124.4v-224.3c0-57.8,0-91.1,34.2-124.4C59.3,14.7,93.5,14.7,152.9,14.7h200.2c59.4,0,93.6,0,127.8,33.3,34.2,33.3,34.2,66.5,34.2,124.4v224.3c0,57.8,0,91.1-34.2,124.4-34.2,33.3-68.3,33.3-127.8,33.3h-200.2Z"/>
            <path class="st75" d="M153.7,549.8c-58.9,0-92.8,0-126.7-33C-6.9,483.8-6.9,450.9-6.9,393.5v-220.1c0-57.4,0-90.3,33.9-123.3C60.9,17.1,94.8,17.1,153.7,17.1h198.5c58.9,0,92.8,0,126.7,33,33.9,33,33.9,66,33.9,123.3v220.1c0,57.4,0,90.3-33.9,123.3-33.9,33-67.8,33-126.7,33h-198.5Z"/>
            <path class="st46" d="M154.6,545.4c-58.4,0-92,0-125.6-32.7C-4.7,480-4.7,447.3-4.7,390.4v-215.9c0-56.9,0-89.6,33.6-122.3C62.5,19.6,96.1,19.6,154.6,19.6h196.8c58.4,0,92,0,125.6,32.7,33.6,32.7,33.6,65.4,33.6,122.3v215.9c0,56.9,0,89.6-33.6,122.3-33.6,32.7-67.2,32.7-125.6,32.7h-196.8Z"/>
            <path class="st38" d="M155.4,540.9c-57.9,0-91.3,0-124.6-32.4C-2.5,476.1-2.5,443.7-2.5,387.3v-211.6c0-56.4,0-88.8,33.3-121.2C64.2,22,97.5,22,155.4,22h195.1c57.9,0,91.3,0,124.6,32.4,33.3,32.4,33.3,64.8,33.3,121.2v211.6c0,56.4,0,88.8-33.3,121.2-33.3,32.4-66.6,32.4-124.6,32.4h-195.1Z"/>
            <path class="st40" d="M156.3,536.5c-57.4,0-90.5,0-123.5-32.1C-.3,472.2-.3,440.1-.3,384.2v-207.4C-.3,120.9-.3,88.7,32.8,56.6,65.8,24.4,98.8,24.5,156.3,24.5h193.5c57.4,0,90.5,0,123.5,32.1,33,32.1,33,64.3,33,120.2v207.4c0,55.9,0,88-33,120.2-33,32.1-66.1,32.1-123.5,32.1h-193.5Z"/>
            <path class="st44" d="M157.1,532.1c-56.9,0-89.7,0-122.4-31.9C1.9,468.4,1.9,436.5,1.9,381.1v-203.2c0-55.4,0-87.3,32.7-119.1,32.7-31.9,65.5-31.9,122.4-31.9h191.8c56.9,0,89.7,0,122.4,31.9,32.7,31.9,32.7,63.7,32.7,119.1v203.2c0,55.4,0,87.3-32.7,119.1-32.7,31.9-65.5,31.9-122.4,31.9h-191.8Z"/>
            <path class="st21" d="M158,527.6c-56.4,0-88.9,0-121.4-31.6-32.5-31.6-32.5-63.2-32.5-118.1v-199c0-54.9,0-86.5,32.5-118.1,32.5-31.6,64.9-31.6,121.4-31.6h190.1c56.4,0,88.9,0,121.3,31.6,32.5,31.6,32.5,63.2,32.5,118.1v199c0,54.9,0,86.5-32.5,118.1-32.5,31.6-64.9,31.6-121.3,31.6h-190.1Z"/>
            <path class="st41" d="M158.8,523.2c-55.9,0-88.1,0-120.3-31.3-32.2-31.3-32.2-62.6-32.2-117v-194.7c0-54.4,0-85.7,32.2-117,32.2-31.3,64.3-31.3,120.3-31.3h188.4c55.9,0,88.1,0,120.3,31.3,32.2,31.3,32.2,62.6,32.2,117v194.7c0,54.4,0,85.7-32.2,117-32.2,31.3-64.3,31.3-120.3,31.3h-188.4Z"/>
            <path class="st18" d="M159.6,518.8c-55.4,0-87.3,0-119.2-31-31.9-31-31.9-62-31.9-116v-190.5c0-54,0-85,31.9-116,31.9-31,63.8-31,119.2-31h186.7c55.4,0,87.3,0,119.2,31,31.9,31,31.9,62,31.9,116v190.5c0,54,0,85-31.9,116-31.9,31-63.8,31-119.2,31h-186.7Z"/>
            <path class="st28" d="M160.5,514.3c-54.9,0-86.5,0-118.1-30.7-31.6-30.7-31.6-61.5-31.6-115v-186.3c0-53.5,0-84.2,31.6-115,31.6-30.7,63.2-30.7,118.1-30.7h185c54.9,0,86.5,0,118.1,30.7,31.6,30.7,31.6,61.5,31.6,115v186.3c0,53.5,0,84.2-31.6,115-31.6,30.7-63.2,30.7-118.1,30.7h-185Z"/>
            <path class="st33" d="M161.3,509.9c-54.4,0-85.8,0-117.1-30.5-31.3-30.5-31.3-60.9-31.3-113.9v-182.1c0-53,0-83.4,31.3-113.9,31.3-30.5,62.6-30.5,117.1-30.5h183.4c54.4,0,85.8,0,117.1,30.5,31.3,30.5,31.3,60.9,31.3,113.9v182.1c0,53,0,83.4-31.3,113.9-31.3,30.5-62.6,30.5-117.1,30.5h-183.4Z"/>
            <path class="st7" d="M162.2,505.5c-53.9,0-85,0-116-30.2-31-30.2-31-60.4-31-112.9v-177.8c0-52.5,0-82.7,31-112.9,31-30.2,62-30.2,116-30.2h181.7c54,0,85,0,116,30.2,31,30.2,31,60.4,31,112.9v177.8c0,52.5,0,82.7-31,112.9-31,30.2-62,30.2-116,30.2h-181.7Z"/>
            <path class="st30" d="M163,501.1c-53.4,0-84.2,0-114.9-29.9-30.7-29.9-30.7-59.8-30.7-111.8v-173.6c0-52,0-81.9,30.7-111.8,30.7-29.9,61.5-29.9,114.9-29.9h180c53.5,0,84.2,0,114.9,29.9,30.7,29.9,30.7,59.8,30.7,111.8v173.6c0,52,0,81.9-30.7,111.8-30.7,29.9-61.5,29.9-114.9,29.9h-180Z"/>
            <path class="st9" d="M163.8,496.6c-52.9,0-83.4,0-113.8-29.6-30.4-29.6-30.4-59.3-30.4-110.8v-169.4c0-51.5,0-81.1,30.4-110.8,30.4-29.6,60.9-29.6,113.8-29.6h178.3c53,0,83.4,0,113.8,29.6,30.4,29.6,30.4,59.2,30.4,110.8v169.4c0,51.5,0,81.2-30.4,110.8-30.4,29.6-60.9,29.6-113.8,29.6h-178.3Z"/>
            <path class="st62" d="M164.7,492.2c-52.4,0-82.6,0-112.8-29.3-30.2-29.3-30.2-58.7-30.2-109.7v-165.2c0-51,0-80.4,30.2-109.7,30.2-29.3,60.3-29.3,112.8-29.3h176.6c52.5,0,82.6,0,112.8,29.3,30.2,29.3,30.2,58.7,30.2,109.7v165.2c0,51,0,80.4-30.2,109.7-30.2,29.3-60.3,29.3-112.8,29.3h-176.6Z"/>
            <path class="st69" d="M165.5,487.8c-51.9,0-81.8,0-111.7-29.1-29.9-29.1-29.9-58.1-29.9-108.7v-160.9c0-50.5,0-79.6,29.9-108.7,29.9-29.1,59.7-29.1,111.7-29.1h174.9c52,0,81.8,0,111.7,29.1,29.9,29.1,29.9,58.1,29.9,108.7v160.9c0,50.6,0,79.6-29.9,108.7-29.9,29.1-59.7,29.1-111.7,29.1h-174.9Z"/>
            <path id="Rectangle_71" data-name="Rectangle_7" class="st5" d="M166.4,483.3c-51.4,0-81,0-110.6-28.8-29.6-28.8-29.6-57.6-29.6-107.6v-156.7c0-50.1,0-78.9,29.6-107.6,29.6-28.8,59.2-28.8,110.6-28.8h173.3c51.5,0,81,0,110.6,28.8,29.6,28.8,29.6,57.6,29.6,107.6v156.7c0,50.1,0,78.9-29.6,107.6-29.6,28.8-59.2,28.8-110.6,28.8h-173.3Z"/>
          </g>
          <g class="st82">
            <path id="Rectangle_72" data-name="Rectangle_7" class="st15" d="M148.7,576.4c-61.9,0-97.6,0-133.2-34.7-35.6-34.7-35.6-69.3-35.6-129.6v-245.4c0-60.3,0-94.9,35.6-129.6C51.1,2.5,86.8,2.5,148.7,2.5h208.6c61.9,0,97.6,0,133.2,34.7,35.6,34.7,35.6,69.3,35.6,129.6v245.4c0,60.3,0,94.9-35.6,129.6-35.6,34.7-71.2,34.7-133.2,34.7h-208.6Z"/>
            <path class="st66" d="M149.5,571.9c-61.4,0-96.8,0-132.1-34.4-35.3-34.4-35.3-68.8-35.3-128.5v-241.2c0-59.8,0-94.2,35.3-128.5C52.8,4.9,88.1,4.9,149.5,4.9h206.9c61.4,0,96.8,0,132.1,34.4,35.3,34.4,35.3,68.8,35.3,128.5v241.2c0,59.8,0,94.2-35.3,128.5-35.3,34.4-70.6,34.4-132.1,34.4h-206.9Z"/>
            <path class="st56" d="M150.4,567.5c-60.9,0-96,0-131-34.1-35-34.1-35-68.2-35-127.5v-237c0-59.3,0-93.4,35-127.5C54.4,7.3,89.4,7.3,150.4,7.3h205.2c60.9,0,96,0,131,34.1,35,34.1,35,68.2,35,127.5v237c0,59.3,0,93.4-35,127.5-35,34.1-70.1,34.1-131,34.1h-205.2Z"/>
            <path class="st60" d="M151.2,563.1c-60.4,0-95.2,0-129.9-33.8-34.7-33.8-34.7-67.6-34.7-126.5v-232.8c0-58.8,0-92.6,34.7-126.5C56,9.8,90.8,9.8,151.2,9.8h203.6c60.4,0,95.2,0,129.9,33.8,34.8,33.8,34.8,67.6,34.8,126.5v232.8c0,58.8,0,92.6-34.8,126.5-34.7,33.8-69.5,33.8-129.9,33.8h-203.6Z"/>
            <path class="st53" d="M152.1,558.7c-59.9,0-94.4,0-128.9-33.5-34.5-33.5-34.5-67.1-34.5-125.4v-228.5c0-58.3,0-91.9,34.5-125.4C57.7,12.2,92.1,12.2,152.1,12.2h201.9c59.9,0,94.4,0,128.9,33.5,34.5,33.5,34.5,67.1,34.5,125.4v228.5c0,58.3,0,91.9-34.5,125.4-34.5,33.5-68.9,33.5-128.9,33.5h-201.9Z"/>
            <path class="st59" d="M152.9,554.2c-59.4,0-93.6,0-127.8-33.3-34.2-33.3-34.2-66.5-34.2-124.4v-224.3c0-57.8,0-91.1,34.2-124.4C59.3,14.7,93.5,14.7,152.9,14.7h200.2c59.4,0,93.6,0,127.8,33.3,34.2,33.3,34.2,66.5,34.2,124.4v224.3c0,57.8,0,91.1-34.2,124.4-34.2,33.3-68.3,33.3-127.8,33.3h-200.2Z"/>
            <path class="st74" d="M153.7,549.8c-58.9,0-92.8,0-126.7-33C-6.9,483.8-6.9,450.9-6.9,393.5v-220.1c0-57.4,0-90.3,33.9-123.3C60.9,17.1,94.8,17.1,153.7,17.1h198.5c58.9,0,92.8,0,126.7,33,33.9,33,33.9,66,33.9,123.3v220.1c0,57.4,0,90.3-33.9,123.3-33.9,33-67.8,33-126.7,33h-198.5Z"/>
            <path class="st45" d="M154.6,545.4c-58.4,0-92,0-125.6-32.7C-4.7,480-4.7,447.3-4.7,390.4v-215.9c0-56.9,0-89.6,33.6-122.3C62.5,19.6,96.1,19.6,154.6,19.6h196.8c58.4,0,92,0,125.6,32.7,33.6,32.7,33.6,65.4,33.6,122.3v215.9c0,56.9,0,89.6-33.6,122.3-33.6,32.7-67.2,32.7-125.6,32.7h-196.8Z"/>
            <path class="st37" d="M155.4,540.9c-57.9,0-91.3,0-124.6-32.4C-2.5,476.1-2.5,443.7-2.5,387.3v-211.6c0-56.4,0-88.8,33.3-121.2C64.2,22,97.5,22,155.4,22h195.1c57.9,0,91.3,0,124.6,32.4,33.3,32.4,33.3,64.8,33.3,121.2v211.6c0,56.4,0,88.8-33.3,121.2-33.3,32.4-66.6,32.4-124.6,32.4h-195.1Z"/>
            <path class="st39" d="M156.3,536.5c-57.4,0-90.5,0-123.5-32.1C-.3,472.2-.3,440.1-.3,384.2v-207.4C-.3,120.9-.3,88.7,32.8,56.6,65.8,24.4,98.8,24.5,156.3,24.5h193.5c57.4,0,90.5,0,123.5,32.1,33,32.1,33,64.3,33,120.2v207.4c0,55.9,0,88-33,120.2-33,32.1-66.1,32.1-123.5,32.1h-193.5Z"/>
            <path class="st43" d="M157.1,532.1c-56.9,0-89.7,0-122.4-31.9C1.9,468.4,1.9,436.5,1.9,381.1v-203.2c0-55.4,0-87.3,32.7-119.1,32.7-31.9,65.5-31.9,122.4-31.9h191.8c56.9,0,89.7,0,122.4,31.9,32.7,31.9,32.7,63.7,32.7,119.1v203.2c0,55.4,0,87.3-32.7,119.1-32.7,31.9-65.5,31.9-122.4,31.9h-191.8Z"/>
            <path class="st22" d="M158,527.6c-56.4,0-88.9,0-121.4-31.6-32.5-31.6-32.5-63.2-32.5-118.1v-199c0-54.9,0-86.5,32.5-118.1,32.5-31.6,64.9-31.6,121.4-31.6h190.1c56.4,0,88.9,0,121.3,31.6,32.5,31.6,32.5,63.2,32.5,118.1v199c0,54.9,0,86.5-32.5,118.1-32.5,31.6-64.9,31.6-121.3,31.6h-190.1Z"/>
            <path class="st42" d="M158.8,523.2c-55.9,0-88.1,0-120.3-31.3-32.2-31.3-32.2-62.6-32.2-117v-194.7c0-54.4,0-85.7,32.2-117,32.2-31.3,64.3-31.3,120.3-31.3h188.4c55.9,0,88.1,0,120.3,31.3,32.2,31.3,32.2,62.6,32.2,117v194.7c0,54.4,0,85.7-32.2,117-32.2,31.3-64.3,31.3-120.3,31.3h-188.4Z"/>
            <path class="st17" d="M159.6,518.8c-55.4,0-87.3,0-119.2-31-31.9-31-31.9-62-31.9-116v-190.5c0-54,0-85,31.9-116,31.9-31,63.8-31,119.2-31h186.7c55.4,0,87.3,0,119.2,31,31.9,31,31.9,62,31.9,116v190.5c0,54,0,85-31.9,116-31.9,31-63.8,31-119.2,31h-186.7Z"/>
            <path class="st27" d="M160.5,514.3c-54.9,0-86.5,0-118.1-30.7-31.6-30.7-31.6-61.5-31.6-115v-186.3c0-53.5,0-84.2,31.6-115,31.6-30.7,63.2-30.7,118.1-30.7h185c54.9,0,86.5,0,118.1,30.7,31.6,30.7,31.6,61.5,31.6,115v186.3c0,53.5,0,84.2-31.6,115-31.6,30.7-63.2,30.7-118.1,30.7h-185Z"/>
            <path class="st34" d="M161.3,509.9c-54.4,0-85.8,0-117.1-30.5-31.3-30.5-31.3-60.9-31.3-113.9v-182.1c0-53,0-83.4,31.3-113.9,31.3-30.5,62.6-30.5,117.1-30.5h183.4c54.4,0,85.8,0,117.1,30.5,31.3,30.5,31.3,60.9,31.3,113.9v182.1c0,53,0,83.4-31.3,113.9-31.3,30.5-62.6,30.5-117.1,30.5h-183.4Z"/>
            <path class="st8" d="M162.2,505.5c-53.9,0-85,0-116-30.2-31-30.2-31-60.4-31-112.9v-177.8c0-52.5,0-82.7,31-112.9,31-30.2,62-30.2,116-30.2h181.7c54,0,85,0,116,30.2,31,30.2,31,60.4,31,112.9v177.8c0,52.5,0,82.7-31,112.9-31,30.2-62,30.2-116,30.2h-181.7Z"/>
            <path class="st29" d="M163,501.1c-53.4,0-84.2,0-114.9-29.9-30.7-29.9-30.7-59.8-30.7-111.8v-173.6c0-52,0-81.9,30.7-111.8,30.7-29.9,61.5-29.9,114.9-29.9h180c53.5,0,84.2,0,114.9,29.9,30.7,29.9,30.7,59.8,30.7,111.8v173.6c0,52,0,81.9-30.7,111.8-30.7,29.9-61.5,29.9-114.9,29.9h-180Z"/>
            <path class="st10" d="M163.8,496.6c-52.9,0-83.4,0-113.8-29.6-30.4-29.6-30.4-59.3-30.4-110.8v-169.4c0-51.5,0-81.1,30.4-110.8,30.4-29.6,60.9-29.6,113.8-29.6h178.3c53,0,83.4,0,113.8,29.6,30.4,29.6,30.4,59.2,30.4,110.8v169.4c0,51.5,0,81.2-30.4,110.8-30.4,29.6-60.9,29.6-113.8,29.6h-178.3Z"/>
            <path class="st63" d="M164.7,492.2c-52.4,0-82.6,0-112.8-29.3-30.2-29.3-30.2-58.7-30.2-109.7v-165.2c0-51,0-80.4,30.2-109.7,30.2-29.3,60.3-29.3,112.8-29.3h176.6c52.5,0,82.6,0,112.8,29.3,30.2,29.3,30.2,58.7,30.2,109.7v165.2c0,51,0,80.4-30.2,109.7-30.2,29.3-60.3,29.3-112.8,29.3h-176.6Z"/>
            <path class="st68" d="M165.5,487.8c-51.9,0-81.8,0-111.7-29.1-29.9-29.1-29.9-58.1-29.9-108.7v-160.9c0-50.5,0-79.6,29.9-108.7,29.9-29.1,59.7-29.1,111.7-29.1h174.9c52,0,81.8,0,111.7,29.1,29.9,29.1,29.9,58.1,29.9,108.7v160.9c0,50.6,0,79.6-29.9,108.7-29.9,29.1-59.7,29.1-111.7,29.1h-174.9Z"/>
            <path id="Rectangle_73" data-name="Rectangle_7" class="st3" d="M166.4,483.3c-51.4,0-81,0-110.6-28.8-29.6-28.8-29.6-57.6-29.6-107.6v-156.7c0-50.1,0-78.9,29.6-107.6,29.6-28.8,59.2-28.8,110.6-28.8h173.3c51.5,0,81,0,110.6,28.8,29.6,28.8,29.6,57.6,29.6,107.6v156.7c0,50.1,0,78.9-29.6,107.6-29.6,28.8-59.2,28.8-110.6,28.8h-173.3Z"/>
          </g>
        </g>
        <g class="st80">
          <path id="Rectangle_74" data-name="Rectangle_7" class="st14" d="M158.9,497.7c-55.9,0-88,0-120.2-31.3-32.1-31.3-32.1-62.6-32.1-117v-183.2c0-54.4,0-85.7,32.1-117,32.1-31.3,64.3-31.3,120.2-31.3h188.3c55.9,0,88,0,120.2,31.3,32.1,31.3,32.1,62.6,32.1,117v183.2c0,54.4,0,85.7-32.1,117-32.1,31.3-64.3,31.3-120.2,31.3h-188.3Z"/>
          <path class="st65" d="M159.5,495.6c-55.5,0-87.4,0-119.3-31-31.9-31.1-31.9-62.1-31.9-116.1v-181.9c0-54,0-85.1,31.9-116.1,31.9-31,63.8-31,119.3-31h186.9c55.5,0,87.4,0,119.3,31,31.9,31.1,31.9,62.1,31.9,116.1v181.9c0,54,0,85.1-31.9,116.1-31.9,31-63.8,31-119.3,31h-186.9Z"/>
          <path class="st55" d="M160.2,493.6c-55.1,0-86.8,0-118.5-30.8-31.7-30.8-31.7-61.7-31.7-115.3v-180.6c0-53.6,0-84.4,31.7-115.3,31.7-30.8,63.4-30.8,118.5-30.8h185.5c55.1,0,86.8,0,118.4,30.8,31.7,30.8,31.7,61.7,31.7,115.3v180.6c0,53.6,0,84.4-31.7,115.3-31.7,30.8-63.3,30.8-118.4,30.8h-185.5Z"/>
          <path class="st72" d="M160.9,491.5c-54.7,0-86.1,0-117.6-30.6-31.4-30.6-31.4-61.2-31.4-114.4v-179.2c0-53.2,0-83.8,31.4-114.4,31.4-30.6,62.9-30.6,117.6-30.6h184.2c54.7,0,86.1,0,117.6,30.6,31.4,30.6,31.4,61.2,31.4,114.4v179.2c0,53.2,0,83.8-31.4,114.4-31.4,30.6-62.9,30.6-117.6,30.6h-184.2Z"/>
          <path class="st47" d="M161.6,489.5c-54.3,0-85.5,0-116.7-30.4-31.2-30.4-31.2-60.7-31.2-113.6v-177.9c0-52.8,0-83.2,31.2-113.6,31.2-30.4,62.4-30.4,116.7-30.4h182.8c54.3,0,85.5,0,116.7,30.4,31.2,30.4,31.2,60.7,31.2,113.6v177.9c0,52.8,0,83.2-31.2,113.6-31.2,30.4-62.4,30.4-116.7,30.4h-182.8Z"/>
          <path class="st24" d="M162.3,487.4c-53.9,0-84.9,0-115.8-30.1-31-30.1-31-60.3-31-112.7v-176.6c0-52.4,0-82.6,31-112.7,31-30.1,62-30.1,115.8-30.1h181.5c53.9,0,84.9,0,115.8,30.1,31,30.1,31,60.3,31,112.7v176.6c0,52.4,0,82.6-31,112.7-31,30.1-62,30.1-115.8,30.1h-181.5Z"/>
          <path class="st20" d="M163,485.4c-53.5,0-84.2,0-115-29.9-30.7-29.9-30.7-59.8-30.7-111.9v-175.2c0-52,0-82,30.7-111.9,30.7-29.9,61.5-29.9,115-29.9h180.1c53.5,0,84.2,0,115,29.9,30.7,29.9,30.7,59.8,30.7,111.9v175.2c0,52,0,82-30.7,111.9-30.7,29.9-61.5,29.9-115,29.9h-180.1Z"/>
          <path class="st35" d="M163.6,483.3c-53.1,0-83.6,0-114.1-29.7-30.5-29.7-30.5-59.4-30.5-111v-173.9c0-51.6,0-81.3,30.5-111,30.5-29.7,61-29.7,114.1-29.7h178.7c53.1,0,83.6,0,114.1,29.7,30.5,29.7,30.5,59.4,30.5,111v173.9c0,51.6,0,81.3-30.5,111-30.5,29.7-61,29.7-114.1,29.7h-178.7Z"/>
          <path class="st32" d="M164.3,481.3c-52.7,0-82.9,0-113.2-29.5-30.3-29.5-30.3-58.9-30.3-110.2v-172.6c0-51.2,0-80.7,30.3-110.2,30.3-29.5,60.6-29.5,113.2-29.5h177.4c52.7,0,82.9,0,113.2,29.5,30.3,29.5,30.3,58.9,30.3,110.2v172.6c0,51.2,0,80.7-30.3,110.2-30.3,29.5-60.6,29.5-113.2,29.5h-177.4Z"/>
          <path class="st25" d="M165,479.2c-52.3,0-82.3,0-112.4-29.2-30-29.2-30-58.5-30-109.3v-171.3c0-50.9,0-80.1,30-109.3,30-29.2,60.1-29.2,112.4-29.2h176c52.3,0,82.3,0,112.3,29.2,30,29.2,30,58.5,30,109.3v171.3c0,50.9,0,80.1-30,109.3-30,29.2-60.1,29.2-112.3,29.2h-176Z"/>
          <path class="st71" d="M165.7,477.1c-51.9,0-81.7,0-111.5-29-29.8-29-29.8-58-29.8-108.5v-169.9c0-50.5,0-79.5,29.8-108.5,29.8-29,59.6-29,111.5-29h174.6c51.9,0,81.7,0,111.5,29,29.8,29,29.8,58,29.8,108.5v169.9c0,50.5,0,79.5-29.8,108.5-29.8,29-59.6,29-111.5,29h-174.6Z"/>
          <path id="Rectangle_75" data-name="Rectangle_7" class="st4" d="M166.4,475.1c-51.4,0-81,0-110.6-28.8-29.6-28.8-29.6-57.6-29.6-107.6v-168.6c0-50.1,0-78.9,29.6-107.6,29.6-28.8,59.2-28.8,110.6-28.8h173.3c51.5,0,81,0,110.6,28.8,29.6,28.8,29.6,57.6,29.6,107.6v168.6c0,50.1,0,78.9-29.6,107.6-29.6,28.8-59.2,28.8-110.6,28.8h-173.3Z"/>
        </g>
        <g>
          <path id="Rectangle_76" data-name="Rectangle_7" class="st13" d="M163.3,480.9c-53.3,0-83.9,0-114.5-29.8-30.6-29.8-30.6-59.6-30.6-111.5v-174.6c0-51.8,0-81.6,30.6-111.4,30.6-29.8,61.3-29.8,114.5-29.8h179.4c53.3,0,83.9,0,114.5,29.8,30.6,29.8,30.6,59.6,30.6,111.4v174.6c0,51.8,0,81.6-30.6,111.5-30.6,29.8-61.3,29.8-114.5,29.8h-179.4Z"/>
          <path class="st64" d="M163.6,480.3c-53.1,0-83.6,0-114.2-29.7-30.5-29.7-30.5-59.4-30.5-111.1v-174c0-51.7,0-81.4,30.5-111.1,30.5-29.7,61.1-29.7,114.2-29.7h178.8c53.1,0,83.6,0,114.2,29.7,30.5,29.7,30.5,59.4,30.5,111.1v174c0,51.7,0,81.4-30.5,111.1-30.5,29.7-61.1,29.7-114.2,29.7h-178.8Z"/>
          <path class="st54" d="M163.9,479.7c-52.9,0-83.4,0-113.8-29.6-30.4-29.6-30.4-59.2-30.4-110.8v-173.5c0-51.5,0-81.1,30.4-110.8,30.4-29.6,60.9-29.6,113.8-29.6h178.3c52.9,0,83.4,0,113.8,29.6,30.4,29.6,30.4,59.2,30.4,110.8v173.5c0,51.5,0,81.1-30.4,110.8-30.4,29.6-60.9,29.6-113.8,29.6h-178.3Z"/>
          <path class="st73" d="M164.1,479.1c-52.8,0-83.1,0-113.5-29.5-30.3-29.5-30.3-59.1-30.3-110.4v-173c0-51.4,0-80.9,30.3-110.4,30.3-29.5,60.7-29.5,113.5-29.5h177.7c52.8,0,83.1,0,113.5,29.5,30.3,29.5,30.3,59.1,30.3,110.4v173c0,51.4,0,80.9-30.3,110.4-30.3,29.5-60.7,29.5-113.5,29.5h-177.7Z"/>
          <path class="st48" d="M164.4,478.5c-52.6,0-82.9,0-113.1-29.4-30.2-29.4-30.2-58.9-30.2-110.1v-172.4c0-51.2,0-80.6,30.2-110.1,30.2-29.4,60.5-29.4,113.1-29.4h177.2c52.6,0,82.9,0,113.1,29.4,30.2,29.4,30.2,58.9,30.2,110.1v172.4c0,51.2,0,80.6-30.2,110.1-30.2,29.4-60.5,29.4-113.1,29.4h-177.2Z"/>
          <path class="st23" d="M164.7,477.9c-52.4,0-82.6,0-112.7-29.3-30.2-29.3-30.2-58.7-30.2-109.7v-171.9c0-51,0-80.4,30.2-109.7,30.2-29.3,60.3-29.3,112.7-29.3h176.6c52.4,0,82.6,0,112.7,29.3,30.2,29.3,30.2,58.7,30.2,109.7v171.9c0,51,0,80.4-30.2,109.7-30.1,29.3-60.3,29.3-112.7,29.3h-176.6Z"/>
          <path class="st19" d="M165,477.3c-52.3,0-82.3,0-112.4-29.2-30.1-29.2-30.1-58.5-30.1-109.4v-171.3c0-50.9,0-80.1,30.1-109.4,30.1-29.2,60.1-29.2,112.4-29.2h176.1c52.3,0,82.3,0,112.4,29.2,30.1,29.2,30.1,58.5,30.1,109.4v171.3c0,50.9,0,80.1-30.1,109.4-30.1,29.2-60.1,29.2-112.4,29.2h-176.1Z"/>
          <path class="st36" d="M165.3,476.7c-52.1,0-82.1,0-112-29.2-30-29.2-30-58.3-30-109v-170.8c0-50.7,0-79.9,30-109,30-29.2,59.9-29.2,112-29.2h175.5c52.1,0,82.1,0,112,29.2,30,29.2,30,58.3,30,109v170.8c0,50.7,0,79.9-30,109-30,29.2-59.9,29.2-112,29.2h-175.5Z"/>
          <path class="st31" d="M165.5,476.1c-51.9,0-81.8,0-111.7-29.1-29.9-29.1-29.9-58.1-29.9-108.7v-170.2c0-50.5,0-79.6,29.9-108.7,29.9-29.1,59.7-29.1,111.7-29.1h174.9c51.9,0,81.8,0,111.7,29.1,29.9,29.1,29.9,58.1,29.9,108.7v170.2c0,50.5,0,79.6-29.9,108.7-29.9,29.1-59.7,29.1-111.7,29.1h-174.9Z"/>
          <path class="st26" d="M165.8,475.5c-51.8,0-81.6,0-111.3-29-29.8-29-29.8-57.9-29.8-108.3v-169.7c0-50.4,0-79.4,29.8-108.3,29.8-29,59.5-29,111.3-29h174.4c51.8,0,81.6,0,111.3,29,29.8,29,29.8,57.9,29.8,108.3v169.7c0,50.4,0,79.4-29.8,108.3-29.8,29-59.5,29-111.3,29h-174.4Z"/>
          <path class="st70" d="M166.1,474.9c-51.6,0-81.3,0-111-28.9-29.7-28.9-29.7-57.8-29.7-108v-169.2c0-50.2,0-79.1,29.7-108,29.7-28.9,59.4-28.9,111-28.9h173.8c51.6,0,81.3,0,111,28.9,29.7,28.9,29.7,57.8,29.7,108v169.2c0,50.2,0,79.1-29.7,108-29.7,28.9-59.3,28.9-111,28.9h-173.8Z"/>
          <path id="Rectangle_77" data-name="Rectangle_7" class="st2" d="M166.4,474.3c-51.4,0-81,0-110.6-28.8-29.6-28.8-29.6-57.6-29.6-107.6v-168.6c0-50.1,0-78.8,29.6-107.6,29.6-28.8,59.2-28.8,110.6-28.8h173.3c51.5,0,81,0,110.6,28.8,29.6,28.8,29.6,57.6,29.6,107.6v168.6c0,50.1,0,78.9-29.6,107.6-29.6,28.8-59.2,28.8-110.6,28.8h-173.3Z"/>
        </g>
      </g>
      <g class="st0">
        <g id="icon_x5F_bg">
          <rect class="st79" x="27.7" y="36.3" width="457.2" height="444.9"/>
          <path class="st49" d="M478.5,45.7c-29.8-29-71.6-38.5-123.4-38.5l-182.2-2.4c-51.9,0-118.2,7.7-148,36.7-29.8,29,2.8,81.8,2.8,132.3v1.7c0-50.5,0-79.5,29.8-108.5,29.8-29,59.6-29,111.5-29h174.6c51.9,0,81.7,0,111.5,29,29.8,29,29.8,58,29.8,108.5v-1.7c0-50.5,23.4-99.1-6.4-128.1Z"/>
        </g>
      </g>
      <g class="st12">
        <g id="icon_x5F_bg1" data-name="icon_x5F_bg">
          <rect class="st1" x="41.8" y="51.2" width="428.7" height="417.2"/>
          <path class="st51" d="M464.5,60c-28-27.2-67.1-36.1-115.7-36.1l-170.8-2.2c-48.6,0-110.8,7.2-138.8,34.4-28,27.2,2.7,76.7,2.7,124v1.6c0-47.3,0-74.5,28-101.7,28-27.2,55.9-27.2,104.5-27.2h163.8c48.6,0,76.6,0,104.5,27.2,28,27.2,28,54.4,28,101.7v-1.6c0-47.3,21.9-92.9-6-120.1Z"/>
        </g>
      </g>
      <g>
        <circle class="st76" cx="99.2" cy="101.7" r="5.9"/>
        <circle class="st16" cx="123.1" cy="101.7" r="5.9"/>
        <circle class="st83" cx="146.9" cy="101.7" r="5.9"/>
      </g>
      <g class="st78">
        <path class="st6" d="M113.5,282.2c-3.4,0-6.3-.6-8.8-1.9s-4.4-3-5.8-5.2c-1.4-2.2-2.1-4.6-2.1-7.2v-22.9c0-2.6.7-5,2.1-7.2,1.4-2.2,3.3-3.9,5.8-5.2,2.5-1.3,5.4-1.9,8.8-1.9h11.6c3.4,0,6.3.6,8.8,1.9,2.5,1.3,4.4,3,5.8,5.2,1.4,2.2,2,4.6,2,7.2v22.9c0,2.6-.7,5-2,7.2-1.4,2.2-3.3,3.9-5.8,5.2-2.5,1.3-5.4,1.9-8.8,1.9h-11.6ZM115.5,265.2h9.1l4.4-.5-.9-4.1-3.5.6h-8.8l-2.5-.4-.5-2.3v-18.1l.4-2.1,2.6-.4h8.6l3.9.6.8-4-4.4-.5h-9.1l-3.9.5-2.4,2.4-.6,3.2v19.1l.6,3.2,2.4,2.4,3.8.5Z"/>
        <path class="st6" d="M158.1,282.2c-3.4,0-6.3-.6-8.8-1.9s-4.4-3-5.8-5.2c-1.4-2.2-2.1-4.6-2.1-7.2v-22.9c0-2.6.7-5,2.1-7.2,1.4-2.2,3.3-3.9,5.8-5.2,2.5-1.3,5.4-1.9,8.8-1.9h11.6c3.4,0,6.3.6,8.8,1.9,2.5,1.3,4.4,3,5.8,5.2,1.4,2.2,2,4.6,2,7.2v22.9c0,2.6-.7,5-2,7.2s-3.3,3.9-5.8,5.2-5.4,1.9-8.8,1.9h-11.6ZM160.5,265.2h10.1l3.9-.5,2.4-2.4.5-3.2v-19l-.5-3.2-2.4-2.4-3.9-.5h-10.1l-3.8.5-2.4,2.4-.5,3.2v19l.5,3.2,2.5,2.4,3.8.5ZM160.8,261.2l-2.4-.4-.6-2.3v-18l.4-2.1,2.6-.4h9.6l2.6.4.4,2.2v18l-.5,2.1-2.5.4h-9.6Z"/>
        <path class="st6" d="M202.6,282.2c-3.4,0-6.3-.6-8.8-1.9-2.5-1.3-4.4-3-5.8-5.2-1.4-2.2-2.1-4.6-2.1-7.2v-22.9c0-2.6.7-5,2.1-7.2,1.4-2.2,3.3-3.9,5.8-5.2,2.5-1.3,5.4-1.9,8.8-1.9h11.6c3.4,0,6.3.6,8.8,1.9,2.5,1.3,4.4,3,5.8,5.2,1.4,2.2,2,4.6,2,7.2v22.9c0,2.6-.7,5-2,7.2s-3.3,3.9-5.8,5.2c-2.5,1.3-5.4,1.9-8.8,1.9h-11.6ZM198.3,265.2h4v-26.7l2.9-.5h9l2.6.4.4,2.2v24.6h4v-25.1l-.5-3.2-2.4-2.4-3.8-.5h-9.4l-6.8.9v30.2Z"/>
        <path class="st6" d="M247.2,282.2c-3.4,0-6.3-.6-8.8-1.9-2.5-1.3-4.4-3-5.8-5.2-1.4-2.2-2.1-4.6-2.1-7.2v-22.9c0-2.6.7-5,2.1-7.2,1.4-2.2,3.3-3.9,5.8-5.2,2.5-1.3,5.4-1.9,8.8-1.9h11.6c3.4,0,6.3.6,8.8,1.9,2.5,1.3,4.4,3,5.8,5.2,1.4,2.2,2,4.6,2,7.2v22.9c0,2.6-.7,5-2,7.2s-3.3,3.9-5.8,5.2c-2.5,1.3-5.4,1.9-8.8,1.9h-11.6ZM249.3,265.2h9.8l3.8-.5,2.4-2.4.5-3.2v-5.7l-.5-3.2-2.4-2.4-3.9-.4h-8.4l-2.3-.5-.5-2.2v-4l.5-2.2,2.5-.5h9.6l3.5.7.9-4.1-4.4-.6h-9.9l-3.8.5-2.4,2.4-.5,3.2v5.2l.5,3.2,2.4,2.4,3.8.5h8.5l2.3.4.5,2.1v4.9l-.5,2.1-2.4.4h-9.3l-3.7-.6-.9,4.1,4.4.5Z"/>
        <path class="st6" d="M291.8,282.2c-3.4,0-6.3-.6-8.8-1.9-2.5-1.3-4.4-3-5.8-5.2-1.4-2.2-2.1-4.6-2.1-7.2v-22.9c0-2.6.7-5,2.1-7.2,1.4-2.2,3.3-3.9,5.8-5.2,2.5-1.3,5.4-1.9,8.8-1.9h11.6c3.4,0,6.3.6,8.8,1.9,2.5,1.3,4.4,3,5.8,5.2,1.4,2.2,2,4.6,2,7.2v22.9c0,2.6-.7,5-2,7.2s-3.3,3.9-5.8,5.2c-2.5,1.3-5.4,1.9-8.8,1.9h-11.6ZM294.3,265.2h10.1l3.9-.5,2.4-2.4.5-3.2v-19l-.5-3.2-2.4-2.4-3.9-.5h-10.1l-3.8.5-2.4,2.4-.5,3.2v19l.5,3.2,2.5,2.4,3.8.5ZM294.5,261.2l-2.4-.4-.6-2.3v-18l.4-2.1,2.6-.4h9.6l2.6.4.4,2.2v18l-.5,2.1-2.5.4h-9.6Z"/>
        <path class="st6" d="M336.4,282.2c-3.4,0-6.3-.6-8.8-1.9-2.5-1.3-4.4-3-5.8-5.2-1.4-2.2-2.1-4.6-2.1-7.2v-22.9c0-2.6.7-5,2.1-7.2,1.4-2.2,3.3-3.9,5.8-5.2,2.5-1.3,5.4-1.9,8.8-1.9h11.6c3.4,0,6.3.6,8.8,1.9,2.5,1.3,4.4,3,5.8,5.2,1.4,2.2,2,4.6,2,7.2v22.9c0,2.6-.7,5-2,7.2s-3.3,3.9-5.8,5.2c-2.5,1.3-5.4,1.9-8.8,1.9h-11.6ZM338.6,265.2h10.1l3.8-.5,2.4-2.4.5-3.2v-25.1h-4v24.7l-.6,2.1-2.4.4h-9.6l-2.5-.4-.5-2.3v-24.5h-3.9v25.1l.5,3.2,2.4,2.4,3.8.5Z"/>
        <path class="st6" d="M380.9,282.2c-3.4,0-6.3-.6-8.8-1.9-2.5-1.3-4.4-3-5.8-5.2-1.4-2.2-2.1-4.6-2.1-7.2v-22.9c0-2.6.7-5,2.1-7.2,1.4-2.2,3.3-3.9,5.8-5.2,2.5-1.3,5.4-1.9,8.8-1.9h11.6c3.4,0,6.3.6,8.8,1.9,2.5,1.3,4.4,3,5.8,5.2,1.4,2.2,2,4.6,2,7.2v22.9c0,2.6-.7,5-2,7.2s-3.3,3.9-5.8,5.2c-2.5,1.3-5.4,1.9-8.8,1.9h-11.6ZM381.3,265.2h15.5v-4h-11.6v-27.1h-4v31.1Z"/>
      </g>
    </g>
  </g>
</svg>
