<?xml version="1.0" encoding="UTF-8"?>
<svg id="Layer_1" xmlns="http://www.w3.org/2000/svg" xmlns:xlink="http://www.w3.org/1999/xlink" version="1.1" viewBox="0 0 512 512">
  <!-- Generator: Adobe Illustrator 30.0.0, SVG Export Plug-In . SVG Version: 2.1.1 Build 123)  -->
  <defs>
    <style>
      .st0 {
        fill: url(#linear-gradient);
        fill-rule: evenodd;
      }
    </style>
    <linearGradient id="linear-gradient" x1="-8.8" y1="512.9" x2="2.8" y2="512.9" gradientTransform="translate(390.3 19754.3) scale(37.7 -38)" gradientUnits="userSpaceOnUse">
      <stop offset="0" stop-color="#fff" stop-opacity=".7"/>
      <stop offset="1" stop-color="#fff"/>
    </linearGradient>
  </defs>
  <path class="st0" d="M397.8,320.8v71.8c0,11.7,9.8,21.3,21.9,21.3s21.9-9.6,21.9-21.3v-71.8c0-5.7,4.9-10.2,10.8-10.2s10.8,4.5,10.8,10.2v19.2c0,3.1,2.5,5.5,5.6,5.5s5.5-2.5,5.5-5.5v-19.2c0-11.7-9.8-21.3-21.9-21.3s-21.9,9.6-21.9,21.3v71.8c0,5.7-4.9,10.2-10.8,10.2s-10.8-4.5-10.8-10.2v-71.8c0-11.7-9.8-21.3-21.9-21.3s-21.9,9.6-21.9,21.3v123c0,5.7-4.9,10.2-10.8,10.2s-10.8-4.5-10.8-10.2v-75.3c0-11.7-9.8-21.3-21.9-21.3s-21.9,9.6-21.9,21.3v96.1c0,5.7-4.9,10.2-10.8,10.2s-10.8-4.5-10.8-10.2v-74c0-11.7-9.8-21.3-21.9-21.3s-21.9,9.6-21.9,21.3v74c0,5.7-4.9,10.2-10.8,10.2s-10.8-4.5-10.8-10.2v-111.9c0-3.1-2.5-5.5-5.6-5.5s-5.5,2.5-5.5,5.5v111.9c0,11.7,9.8,21.3,21.9,21.3s21.9-9.6,21.9-21.3v-74c0-5.7,4.9-10.2,10.8-10.2s10.8,4.5,10.8,10.2v74c0,11.7,9.8,21.3,21.9,21.3s21.9-9.6,21.9-21.3v-96.1c0-5.7,4.9-10.2,10.8-10.2s10.8,4.5,10.8,10.2v75.3c0,11.7,9.8,21.3,21.9,21.3s21.9-9.6,21.9-21.3v-123c0-5.7,4.9-10.2,10.8-10.2s10.8,4.5,10.8,10.2ZM234.1,47.3v83.3c0,5.7-4.9,10.2-10.8,10.2s-10.8-4.5-10.8-10.2V56.1c0-11.7-9.8-21.3-21.9-21.3s-21.9,9.6-21.9,21.3v387.8c0,5.7-4.9,10.2-10.8,10.2s-10.8-4.5-10.8-10.2V88.8c0-11.7-9.8-21.3-21.9-21.3s-21.9,9.6-21.9,21.3v303.9c0,5.7-4.9,10.2-10.8,10.2s-10.8-4.5-10.8-10.2v-217.9c0-11.7-9.8-21.3-21.9-21.3s-21.9,9.6-21.9,21.3v117.7c0,3.1,2.5,5.5,5.5,5.5s5.6-2.5,5.6-5.5v-117.7c0-5.7,4.9-10.2,10.8-10.2s10.8,4.5,10.8,10.2v217.9c0,11.7,9.8,21.3,21.9,21.3s21.9-9.6,21.9-21.3V88.8c0-5.7,4.9-10.2,10.8-10.2s10.8,4.5,10.8,10.2v355.1c0,11.7,9.8,21.3,21.9,21.3s21.9-9.6,21.9-21.3V56.1c0-5.7,4.9-10.2,10.8-10.2s10.8,4.5,10.8,10.2v74.5c0,11.7,9.8,21.3,21.9,21.3s21.9-9.6,21.9-21.3V47.3c0-5.7,4.9-10.2,10.8-10.2s10.8,4.5,10.8,10.2v78.4c0,11.7,9.8,21.3,21.9,21.3s21.9-9.6,21.9-21.3V56.1c0-5.7,4.9-10.2,10.8-10.2s10.8,4.5,10.8,10.2v133.3c0,11.7,9.8,21.3,21.9,21.3s21.9-9.6,21.9-21.3v-100.6c0-5.7,4.9-10.2,10.8-10.2s10.8,4.5,10.8,10.2v100.6c0,11.7,9.8,21.3,21.9,21.3s21.9-9.6,21.9-21.3v-14.6c0-5.7,4.9-10.2,10.8-10.2s10.8,4.5,10.8,10.2v30.3c0,3.1,2.5,5.6,5.6,5.6s5.5-2.5,5.5-5.6v-30.3c0-11.7-9.8-21.3-21.9-21.3s-21.9,9.6-21.9,21.3v14.6c0,5.7-4.9,10.2-10.8,10.2s-10.8-4.5-10.8-10.2v-100.6c0-11.7-9.8-21.3-21.9-21.3s-21.9,9.6-21.9,21.3v100.6c0,5.7-4.9,10.2-10.8,10.2s-10.8-4.5-10.8-10.2V56.1c0-11.7-9.8-21.3-21.9-21.3s-21.9,9.6-21.9,21.3v69.6c0,5.7-4.9,10.2-10.8,10.2s-10.8-4.5-10.8-10.2V47.3c0-11.7-9.8-21.3-21.9-21.3s-21.9,9.6-21.9,21.3Z"/>
</svg>
